<svg width="128" height="128" viewBox="0 0 128 128" fill="none" xmlns="http://www.w3.org/2000/svg">
<path d="M15.522 12C15.522 12 23.6887 6.80246 28.1886 5.80247C32.6886 4.80248 78.1886 2.30245 106.189 5.80247C110.919 6.39374 112.66 9.59728 116.189 12.8025C120.297 16.5344 123.689 18.8025 125.189 23.8025C126.689 28.8025 127.189 98.3025 125.189 103.302C123.189 108.302 122.338 112.554 118.189 116.802C114.398 120.684 110.189 123.802 106.189 123.802C102.189 123.802 38.6886 123.802 38.6886 123.802C38.6886 123.802 27.6998 124.727 21.6886 121.802C15.7289 118.903 12.0219 118.605 7.52189 109.802C3.0219 101 5.5218 23.605 7.52189 19.3025C9.52197 15 15.522 12 15.522 12Z" fill="#194916"/>
<path d="M9.5 38V82" stroke="#DFFFD8" stroke-width="3" stroke-linecap="round"/>
<path d="M9 87.5C9 87.5 9.67371 100.73 14.5 107C19.6711 113.718 33.5 117.5 33.5 117.5" stroke="#DFFFD8" stroke-width="3" stroke-linecap="round"/>
<path d="M50 116.5C50 116.5 90.5 118.5 96.5 116.5C102.5 114.5 103.802 113.975 107 110.5C109.018 108.307 111 104 111 104" stroke="#DFFFD8" stroke-width="3" stroke-linecap="round"/>
<path d="M115.5 94C113.177 94.5339 112 99 112 99C112 99 114.842 104.299 117.5 103.5C118.697 103.14 119.709 102.716 120 101.5C120.305 100.226 118.5 98.5 118.5 98.5C118.5 98.5 120.257 96.7844 120 95.5C119.637 93.6836 117.305 93.5851 115.5 94Z" stroke="#DFFFD8" stroke-width="3" stroke-linecap="round"/>
<path d="M37.2023 111.535C37.7362 113.858 42.2023 115.035 42.2023 115.035C42.2023 115.035 47.5009 112.193 46.7023 109.535C46.3425 108.337 45.9182 107.326 44.7023 107.035C43.4284 106.73 41.7023 108.535 41.7023 108.535C41.7023 108.535 39.9867 106.778 38.7023 107.035C36.8858 107.398 36.7874 109.729 37.2023 111.535Z" stroke="#DFFFD8" stroke-width="3" stroke-linecap="round"/>
<path d="M38.582 20.5C38.0481 18.1771 33.582 17 33.582 17C33.582 17 28.2834 19.8422 29.082 22.5C29.4418 23.6974 29.8661 24.7089 31.082 25C32.3559 25.305 34.082 23.5 34.082 23.5C34.082 23.5 35.7976 25.2569 37.082 25C38.8985 24.6367 38.9969 22.3054 38.582 20.5Z" stroke="#DFFFD8" stroke-width="3" stroke-linecap="round"/>
<path d="M16.5 28.2023C14.1771 28.7362 13 33.2023 13 33.2023C13 33.2023 15.8422 38.5009 18.5 37.7023C19.6974 37.3425 20.7089 36.9182 21 35.7023C21.305 34.4284 19.5 32.7023 19.5 32.7023C19.5 32.7023 21.2569 30.9867 21 29.7023C20.6367 27.8858 18.3054 27.7874 16.5 28.2023Z" stroke="#DFFFD8" stroke-width="3" stroke-linecap="round"/>
<path d="M114.5 89V48.5" stroke="#DFFFD8" stroke-width="3" stroke-linecap="round"/>
<path d="M11.5 25C11.5 25 13.8164 17.1446 18 15.5C20.7259 14.4285 27 14.5 27 14.5" stroke="#DFFFD8" stroke-width="3" stroke-linecap="round"/>
<path d="M37.5 12.5H92" stroke="#DFFFD8" stroke-width="3" stroke-linecap="round"/>
<path d="M95.5 13C95.5 13 106.47 14.1461 110.5 19C114.221 23.4816 114 33.5 114 33.5V43.5" stroke="#DFFFD8" stroke-width="3" stroke-linecap="round"/>
<path d="M64.1071 57.924C63.6591 57.924 62.9031 57.7373 61.8391 57.364C60.7938 56.972 59.6085 56.496 58.2831 55.936C57.1631 55.4693 56.0431 54.9093 54.9231 54.256C53.8031 53.584 52.7858 52.8747 51.8711 52.128C50.9565 51.3627 50.2191 50.5973 49.6591 49.832C49.1178 49.048 48.8471 48.3293 48.8471 47.676C48.8471 46.8547 49.0711 46.0333 49.5191 45.212C49.9671 44.372 50.5645 43.5413 51.3111 42.72C52.0765 41.88 52.9258 41.0587 53.8591 40.256C54.7925 39.4347 55.7445 38.6413 56.7151 37.876C57.2191 37.4653 57.8351 36.9987 58.5631 36.476C59.3098 35.9347 60.0751 35.412 60.8591 34.908C61.6431 34.404 62.3618 33.9933 63.0151 33.676C63.6685 33.34 64.1818 33.172 64.5551 33.172C64.9098 33.172 65.1898 33.256 65.3951 33.424C65.6191 33.5733 65.7311 33.8067 65.7311 34.124C65.7311 34.404 65.4418 34.8147 64.8631 35.356C64.2845 35.8787 63.4725 36.5227 62.4271 37.288C61.3818 38.0347 60.1405 38.9027 58.7031 39.892C58.1618 40.2467 57.5271 40.7413 56.7991 41.376C56.0898 41.992 55.3805 42.6547 54.6711 43.364C53.9805 44.0547 53.4018 44.7453 52.9351 45.436C52.4685 46.108 52.2351 46.6867 52.2351 47.172C52.2351 47.6947 52.4498 48.2453 52.8791 48.824C53.3085 49.384 53.8498 49.9347 54.5031 50.476C55.1751 50.9987 55.8845 51.484 56.6311 51.932C57.3965 52.3613 58.0871 52.7067 58.7031 52.968C61.3725 54.0693 63.1738 54.8813 64.1071 55.404C65.0591 55.908 65.5351 56.328 65.5351 56.664C65.5351 57 65.4325 57.2987 65.2271 57.56C65.0405 57.8027 64.6671 57.924 64.1071 57.924Z" fill="#DFFFD8"/>
<path d="M60.7982 98.3C60.6302 98.076 60.6302 97.8053 60.7982 97.488C60.9662 97.1893 61.2089 96.872 61.5262 96.536C62.0489 96.0507 62.4689 95.4627 62.7862 94.772C63.1222 94.1 63.3089 93.4933 63.3462 92.952C63.3836 92.6907 63.3836 92.4573 63.3462 92.252C63.3089 92.0653 63.2156 91.9533 63.0662 91.916C62.8796 91.8973 62.6462 91.9253 62.3662 92C62.0862 92.0747 61.7596 92.112 61.3862 92.112C60.6209 92.112 59.9489 91.86 59.3702 91.356C58.7916 90.852 58.4742 90.1893 58.4182 89.368C58.3436 88.7707 58.4182 88.22 58.6422 87.716C58.8849 87.1933 59.2396 86.764 59.7062 86.428C60.1729 86.0733 60.7329 85.8307 61.3862 85.7C62.1702 85.5133 62.8889 85.532 63.5422 85.756C64.1956 85.98 64.7462 86.3627 65.1942 86.904C65.6609 87.4453 65.9689 88.0893 66.1182 88.836C66.4356 90.0867 66.3982 91.3093 66.0062 92.504C65.6142 93.7173 65.0822 94.856 64.4102 95.92C64.1862 96.2933 63.9249 96.648 63.6262 96.984C63.3462 97.32 63.0476 97.6093 62.7302 97.852C62.4129 98.0947 62.1142 98.2533 61.8342 98.328C61.6476 98.44 61.4516 98.496 61.2462 98.496C61.0596 98.496 60.9102 98.4307 60.7982 98.3Z" fill="#DFFFD8"/>
</svg>
