<svg width="128" height="128" viewBox="0 0 128 128" fill="none" xmlns="http://www.w3.org/2000/svg">
<path d="M13.522 12C13.522 12 21.6887 6.80246 26.1886 5.80247C30.6886 4.80248 76.1886 2.30245 104.189 5.80247C108.919 6.39374 110.66 9.59728 114.189 12.8025C118.297 16.5344 121.689 18.8025 123.189 23.8025C124.689 28.8025 125.189 98.3025 123.189 103.302C121.189 108.302 120.338 112.554 116.189 116.802C112.398 120.684 108.189 123.802 104.189 123.802C100.189 123.802 36.6886 123.802 36.6886 123.802C36.6886 123.802 25.6998 124.727 19.6886 121.802C13.7289 118.903 10.0219 118.605 5.52189 109.802C1.0219 101 3.5218 23.605 5.52189 19.3025C7.52197 15 13.522 12 13.522 12Z" fill="#DFFFD8"/>
<path d="M10 37C10 37 11.8486 25.8837 16.5 21C19.1148 18.2546 21.0781 17.1323 24.5 15.5C29.7191 13.0103 39 12.5 39 12.5" stroke="#194916" stroke-width="3" stroke-linecap="round"/>
<path d="M45 11.5H88" stroke="#194916" stroke-width="3" stroke-linecap="round"/>
<path d="M100 15C100 15 107.327 16.9334 110 20.5C112.642 24.0253 112.5 31.5 112.5 31.5" stroke="#194916" stroke-width="3" stroke-linecap="round"/>
<path d="M115 40.5L116.5 94.5" stroke="#194916" stroke-width="3" stroke-linecap="round"/>
<path d="M28.5 117.5H69" stroke="#194916" stroke-width="3" stroke-linecap="round"/>
<path d="M77 118C85.5915 117.609 99 117 99 117C99 117 106.27 115.577 109.5 112.5C113.571 108.622 114.5 99 114.5 99" stroke="#194916" stroke-width="3" stroke-linecap="round"/>
<path d="M13.1219 51.1118L11.9711 50.3446C11.3284 49.6364 11.0367 48.67 11.1092 47.7883C11.1851 46.8664 11.6241 46.2381 12.2231 45.9766C12.8938 45.6838 14.2586 45.5213 16.1823 45.6235C18.0362 45.722 20.1951 46.0527 22.299 46.5627C24.4076 47.074 26.4031 47.7514 27.948 48.5185C28.7204 48.902 29.3452 49.2908 29.807 49.6674C30.2792 50.0525 30.5057 50.3638 30.5962 50.5709C30.691 50.7883 30.7147 51.4308 29.779 52.7392C28.9182 53.9428 27.5295 55.2982 25.8835 56.6461C22.591 59.3424 18.6061 61.7394 16.7339 62.5568C16.1739 62.8013 15.5984 62.6694 15.0892 62.0791C14.5561 61.4612 14.2272 60.43 14.4666 59.3149C14.4962 59.1773 14.5903 58.9713 14.831 58.6612C15.0207 58.4167 15.2289 58.194 15.4811 57.9244C15.5631 57.8368 15.6497 57.7442 15.7418 57.6443C16.065 57.2937 16.5012 56.806 16.7813 56.2413C17.0949 55.6091 17.2596 54.7813 16.8748 53.8998C16.2627 52.4979 14.9213 51.8985 14.0969 51.539C13.9807 51.4883 13.87 51.4405 13.7644 51.3948C13.5255 51.2917 13.3128 51.1998 13.1219 51.1118Z" stroke="#194916" stroke-width="3"/>
<path d="M13.4784 84.9933L12.3276 85.7605C11.6849 86.4687 11.3931 87.4351 11.4657 88.3168C11.5416 89.2387 11.9806 89.867 12.5795 90.1285C13.2503 90.4213 14.6151 90.5838 16.5388 90.4816C18.3926 90.3831 20.5516 90.0524 22.6554 89.5424C24.764 89.0312 26.7595 88.3537 28.3045 87.5866C29.0768 87.2031 29.7017 86.8143 30.1634 86.4377C30.6356 86.0526 30.8622 85.7413 30.9526 85.5342C31.0475 85.3168 31.0712 84.6743 30.1354 83.3659C29.2747 82.1623 27.8859 80.8069 26.2399 79.459C22.9474 76.7627 18.9626 74.3657 17.0904 73.5483C16.5303 73.3038 15.9548 73.4357 15.4456 74.026C14.9126 74.6439 14.5836 75.6751 14.8231 76.7902C14.8526 76.9279 14.9468 77.1338 15.1874 77.4439C15.3771 77.6884 15.5854 77.9111 15.8376 78.1807C15.9195 78.2683 16.0061 78.3609 16.0982 78.4608C16.4215 78.8114 16.8576 79.2991 17.1377 79.8638C17.4514 80.496 17.6161 81.3238 17.2312 82.2053C16.6191 83.6073 15.2777 84.2066 14.4534 84.5661C14.3372 84.6168 14.2264 84.6646 14.1208 84.7103C13.8819 84.8135 13.6692 84.9054 13.4784 84.9933Z" stroke="#194916" stroke-width="3"/>
<path d="M15 62C15 62 16.6005 67.194 16.5 68.5C16.4127 69.6352 15 75.5 15 75.5" stroke="#194916" stroke-width="3" stroke-linecap="round"/>
<path d="M5.5 55C5.5 55 8.70484 57.2933 9 59.5C9.35964 62.1887 5.5 65.5 5.5 65.5" stroke="#194916" stroke-width="3" stroke-linecap="round"/>
<path d="M6 72C6 72 9.20484 74.2933 9.5 76.5C9.85964 79.1887 6 82.5 6 82.5" stroke="#194916" stroke-width="3" stroke-linecap="round"/>
<circle cx="6" cy="60" r="2" fill="#194916"/>
<circle cx="6.5" cy="77" r="2" fill="#194916"/>
<path d="M23 114.5C23 114.5 15.6093 110.868 13.5 106.5C12.4496 104.325 12 100.5 12 100.5" stroke="#194916" stroke-width="3" stroke-linecap="round"/>
<path d="M59.0868 83.44C56.8894 83.44 55.0548 83.312 53.5828 83.056C52.1321 82.8 50.9801 82.3413 50.1268 81.68C49.2734 80.9973 48.6548 80.048 48.2708 78.832C47.9081 77.616 47.7054 76.048 47.6628 74.128C47.6414 73.104 47.6414 71.8667 47.6628 70.416C47.7054 68.944 47.7588 67.3867 47.8228 65.744C47.9081 64.08 47.9934 62.4267 48.0788 60.784C48.1854 59.1413 48.2921 57.6267 48.3988 56.24C48.5054 54.832 48.6121 53.68 48.7188 52.784C48.9748 50.4587 49.6574 48.6133 50.7668 47.248C51.8761 45.8827 53.4228 44.912 55.4068 44.336C57.4121 43.7387 59.8868 43.44 62.8308 43.44C64.6654 43.44 66.4468 43.6427 68.1748 44.048C69.9241 44.432 71.4921 45.0293 72.8788 45.84C74.2654 46.6507 75.3641 47.696 76.1748 48.976C77.0068 50.2347 77.4228 51.7387 77.4228 53.488C77.4228 54.9813 77.0921 56.272 76.4308 57.36C75.7694 58.4267 74.9801 59.3013 74.0628 59.984C73.1454 60.6453 72.2708 61.1253 71.4388 61.424C70.6494 61.7227 69.9774 61.936 69.4228 62.064C68.8681 62.192 68.5908 62.32 68.5908 62.448C68.5908 62.576 69.0494 62.704 69.9668 62.832C70.8841 62.9387 71.9934 63.184 73.2948 63.568C74.8734 64.016 76.2388 64.592 77.3908 65.296C78.5641 66 79.4601 66.8747 80.0788 67.92C80.6974 68.9653 81.0068 70.2453 81.0068 71.76C81.0068 73.296 80.5481 74.7573 79.6308 76.144C78.7134 77.5307 77.6894 78.6507 76.5588 79.504C75.7268 80.1227 74.6708 80.6773 73.3908 81.168C72.1321 81.6587 70.7134 82.0747 69.1348 82.416C67.5774 82.7573 65.9454 83.0133 64.2388 83.184C62.5321 83.3547 60.8148 83.44 59.0868 83.44ZM58.5428 80.208C61.4228 80.208 64.0148 80.0267 66.3188 79.664C68.6228 79.28 70.5854 78.7147 72.2068 77.968C73.8494 77.2213 75.1081 76.2827 75.9828 75.152C76.8788 74.0213 77.3268 72.7093 77.3268 71.216C77.3268 69.8507 76.7828 68.7307 75.6948 67.856C74.6281 66.9813 73.2094 66.288 71.4388 65.776C69.6681 65.264 67.7374 64.8907 65.6468 64.656C63.5561 64.4213 61.4654 64.2827 59.3748 64.24C57.3054 64.176 55.4494 64.144 53.8068 64.144C53.4014 64.144 53.0601 64.2613 52.7828 64.496C52.5054 64.7093 52.2814 65.0933 52.1108 65.648C51.9401 66.1813 51.8228 66.9387 51.7588 67.92C51.6948 68.88 51.6628 70.096 51.6628 71.568C51.6628 73.3387 51.7268 74.7893 51.8548 75.92C51.9828 77.0293 52.2708 77.904 52.7188 78.544C53.1668 79.1627 53.8494 79.6 54.7668 79.856C55.6841 80.0907 56.9428 80.208 58.5428 80.208ZM53.0708 61.36C55.2681 61.36 57.2201 61.3387 58.9268 61.296C60.6334 61.232 62.1801 61.1253 63.5668 60.976C64.9534 60.8267 66.2548 60.6027 67.4708 60.304C69.4548 59.792 71.0121 59.0133 72.1428 57.968C73.2948 56.9013 73.8708 55.28 73.8708 53.104C73.8708 51.9307 73.5294 50.9067 72.8468 50.032C72.1641 49.1573 71.2574 48.432 70.1268 47.856C68.9961 47.2587 67.7374 46.8213 66.3508 46.544C64.9641 46.2453 63.5668 46.096 62.1588 46.096C60.7934 46.096 59.4921 46.2453 58.2548 46.544C57.0388 46.8213 55.9828 47.2373 55.0868 47.792C54.1908 48.3467 53.5508 49.0187 53.1667 49.808C52.9748 50.2347 52.7934 50.832 52.6228 51.6C52.4734 52.368 52.3348 53.2107 52.2068 54.128C52.1001 55.024 52.0148 55.92 51.9508 56.816C51.9081 57.6907 51.8868 58.4693 51.8868 59.152C51.8868 59.8347 51.9721 60.3787 52.1428 60.784C52.3134 61.168 52.6228 61.36 53.0708 61.36Z" fill="#194916"/>
</svg>
