<svg width="600" height="128" viewBox="0 0 600 128" fill="none" xmlns="http://www.w3.org/2000/svg">
<rect width="600" height="128" rx="20" fill="#194916"/>
<path d="M519.127 38.19C513.916 31.19 507.238 26.7182 497.627 23.19C484.613 18.4123 475.491 20.19 461.627 20.19C364.386 20.19 213.127 23.19 213.127 23.19M512.127 104.19C505.56 112.741 488.627 115.19 488.627 115.19H86.6269M72.1269 107.69C65.2216 100.598 66.8017 93.0189 65.6269 83.19C64.6305 74.8531 65.6269 61.69 65.6269 61.69C65.6269 61.69 68.0189 49.6525 72.1269 43.19C80.391 30.1896 91.0214 26.2111 106.127 23.19C121.127 20.19 182.127 23.19 182.127 23.19M525.627 51.19C528.945 63.5027 528.246 74.3041 523.627 86.19" stroke="#DFFFD8" stroke-width="3" stroke-linecap="round"/>
<path d="M229.589 84.63C227.391 84.63 225.557 84.502 224.085 84.246C222.634 83.99 221.482 83.5313 220.629 82.87C219.775 82.1873 219.157 81.238 218.773 80.022C218.41 78.806 218.207 77.238 218.165 75.318C218.143 74.294 218.143 73.0567 218.165 71.606C218.207 70.134 218.261 68.5767 218.325 66.934C218.41 65.27 218.495 63.6167 218.581 61.974C218.687 60.3313 218.794 58.8167 218.901 57.43C219.007 56.022 219.114 54.87 219.221 53.974C219.477 51.6487 220.159 49.8033 221.269 48.438C222.378 47.0727 223.925 46.102 225.909 45.526C227.914 44.9287 230.389 44.63 233.333 44.63C235.167 44.63 236.949 44.8327 238.677 45.238C240.426 45.622 241.994 46.2193 243.381 47.03C244.767 47.8407 245.866 48.886 246.677 50.166C247.509 51.4247 247.925 52.9287 247.925 54.678C247.925 56.1713 247.594 57.462 246.933 58.55C246.271 59.6167 245.482 60.4913 244.565 61.174C243.647 61.8353 242.773 62.3153 241.941 62.614C241.151 62.9127 240.479 63.126 239.925 63.254C239.37 63.382 239.093 63.51 239.093 63.638C239.093 63.766 239.551 63.894 240.469 64.022C241.386 64.1287 242.495 64.374 243.797 64.758C245.375 65.206 246.741 65.782 247.893 66.486C249.066 67.19 249.962 68.0647 250.581 69.11C251.199 70.1553 251.509 71.4353 251.509 72.95C251.509 74.486 251.05 75.9473 250.133 77.334C249.215 78.7207 248.191 79.8407 247.061 80.694C246.229 81.3127 245.173 81.8673 243.893 82.358C242.634 82.8487 241.215 83.2647 239.637 83.606C238.079 83.9473 236.447 84.2033 234.741 84.374C233.034 84.5447 231.317 84.63 229.589 84.63ZM229.045 81.398C231.925 81.398 234.517 81.2167 236.821 80.854C239.125 80.47 241.087 79.9047 242.709 79.158C244.351 78.4113 245.61 77.4727 246.485 76.342C247.381 75.2113 247.829 73.8993 247.829 72.406C247.829 71.0407 247.285 69.9207 246.197 69.046C245.13 68.1713 243.711 67.478 241.941 66.966C240.17 66.454 238.239 66.0807 236.149 65.846C234.058 65.6113 231.967 65.4727 229.877 65.43C227.807 65.366 225.951 65.334 224.309 65.334C223.903 65.334 223.562 65.4513 223.285 65.686C223.007 65.8993 222.783 66.2833 222.613 66.838C222.442 67.3713 222.325 68.1287 222.261 69.11C222.197 70.07 222.165 71.286 222.165 72.758C222.165 74.5287 222.229 75.9793 222.357 77.11C222.485 78.2193 222.773 79.094 223.221 79.734C223.669 80.3527 224.351 80.79 225.269 81.046C226.186 81.2807 227.445 81.398 229.045 81.398ZM223.573 62.55C225.77 62.55 227.722 62.5287 229.429 62.486C231.135 62.422 232.682 62.3153 234.069 62.166C235.455 62.0167 236.757 61.7927 237.973 61.494C239.957 60.982 241.514 60.2033 242.645 59.158C243.797 58.0913 244.373 56.47 244.373 54.294C244.373 53.1207 244.031 52.0967 243.349 51.222C242.666 50.3473 241.759 49.622 240.629 49.046C239.498 48.4487 238.239 48.0113 236.853 47.734C235.466 47.4353 234.069 47.286 232.661 47.286C231.295 47.286 229.994 47.4353 228.757 47.734C227.541 48.0113 226.485 48.4273 225.589 48.982C224.693 49.5367 224.053 50.2087 223.669 50.998C223.477 51.4247 223.295 52.022 223.125 52.79C222.975 53.558 222.837 54.4007 222.709 55.318C222.602 56.214 222.517 57.11 222.453 58.006C222.41 58.8807 222.389 59.6593 222.389 60.342C222.389 61.0247 222.474 61.5687 222.645 61.974C222.815 62.358 223.125 62.55 223.573 62.55ZM294.071 84.47C293.538 84.47 293.09 84.246 292.727 83.798C292.365 83.3713 292.045 82.774 291.767 82.006C291.575 81.302 291.341 80.4487 291.063 79.446C290.807 78.4433 290.551 77.4193 290.295 76.374C290.039 75.3073 289.794 74.326 289.559 73.43C289.325 72.534 289.122 71.83 288.951 71.318C288.738 70.614 288.429 70.1127 288.023 69.814C287.618 69.494 286.914 69.2807 285.911 69.174C285.421 69.1313 284.621 69.0673 283.511 68.982C282.402 68.8967 281.186 68.822 279.863 68.758C278.562 68.694 277.335 68.662 276.183 68.662C274.477 68.662 272.738 68.7047 270.967 68.79C269.197 68.854 267.693 68.9287 266.455 69.014C265.41 69.078 264.653 69.2593 264.183 69.558C263.735 69.8353 263.373 70.3687 263.095 71.158C262.818 71.9047 262.519 72.822 262.199 73.91C261.901 74.9767 261.591 76.1073 261.271 77.302C260.951 78.4753 260.653 79.6167 260.375 80.726C260.034 81.814 259.671 82.5927 259.287 83.062C258.903 83.5313 258.381 83.766 257.719 83.766C257.335 83.766 257.005 83.6807 256.727 83.51C256.471 83.3607 256.279 83.1047 256.151 82.742C256.023 82.3793 255.959 81.91 255.959 81.334C255.959 80.502 256.098 79.4033 256.375 78.038C256.653 76.6513 257.026 75.1153 257.495 73.43C257.965 71.7233 258.487 69.974 259.063 68.182C259.639 66.39 260.226 64.6513 260.823 62.966C261.442 61.2593 262.018 59.7233 262.551 58.358C263.106 56.9927 263.575 55.9153 263.959 55.126C264.706 53.6113 265.517 52.2033 266.391 50.902C267.287 49.6007 268.258 48.4593 269.303 47.478C270.37 46.4753 271.522 45.6967 272.759 45.142C273.997 44.5873 275.341 44.31 276.791 44.31C279.309 44.31 281.495 45.1953 283.351 46.966C285.229 48.7367 286.861 51.0193 288.247 53.814C288.717 54.6673 289.218 55.8407 289.751 57.334C290.306 58.8273 290.871 60.502 291.447 62.358C292.023 64.1927 292.567 66.0913 293.079 68.054C293.613 70.0167 294.082 71.9367 294.487 73.814C294.914 75.67 295.245 77.3553 295.479 78.87C295.735 80.3847 295.863 81.6113 295.863 82.55C295.863 83.2327 295.703 83.7233 295.383 84.022C295.085 84.3207 294.647 84.47 294.071 84.47ZM286.167 65.814C286.658 65.7927 286.989 65.654 287.159 65.398C287.33 65.142 287.415 64.726 287.415 64.15C287.415 63.382 287.277 62.4113 286.999 61.238C286.722 60.0433 286.338 58.774 285.847 57.43C285.357 56.086 284.791 54.8167 284.151 53.622C283.255 51.8727 282.199 50.4113 280.983 49.238C279.767 48.0647 278.445 47.478 277.015 47.478C275.565 47.478 274.167 48.0327 272.823 49.142C271.501 50.2513 270.306 51.7233 269.239 53.558C268.77 54.3047 268.29 55.1687 267.799 56.15C267.309 57.11 266.85 58.102 266.423 59.126C266.018 60.1287 265.677 61.078 265.399 61.974C265.143 62.8487 265.015 63.5847 265.015 64.182C265.015 64.758 265.229 65.1527 265.655 65.366C266.103 65.5793 266.967 65.686 268.247 65.686C271.426 65.686 274.157 65.6967 276.439 65.718C278.743 65.7393 280.685 65.7713 282.263 65.814C283.863 65.8353 285.165 65.8353 286.167 65.814ZM318.737 85.11C315.815 85.11 313.201 84.662 310.897 83.766C308.615 82.8913 306.673 81.6327 305.073 79.99C303.495 78.3473 302.289 76.374 301.457 74.07C300.625 71.766 300.209 69.1953 300.209 66.358C300.209 63.3073 300.636 60.502 301.489 57.942C302.364 55.3607 303.644 53.1207 305.329 51.222C307.036 49.3233 309.127 47.862 311.601 46.838C314.097 45.7927 316.967 45.27 320.209 45.27C322.001 45.27 323.623 45.462 325.073 45.846C326.545 46.2087 327.793 46.678 328.817 47.254C329.841 47.8087 330.631 48.3953 331.185 49.014C331.74 49.6327 332.017 50.1873 332.017 50.678C332.017 51.1473 331.868 51.478 331.569 51.67C331.271 51.862 330.951 51.958 330.609 51.958C330.161 51.958 329.735 51.7873 329.329 51.446C328.924 51.1047 328.359 50.7207 327.633 50.294C326.929 49.846 325.927 49.4513 324.625 49.11C323.345 48.7687 321.617 48.598 319.441 48.598C317.692 48.598 315.953 48.9607 314.225 49.686C312.497 50.39 310.929 51.4567 309.521 52.886C308.113 54.294 306.983 56.054 306.129 58.166C305.276 60.278 304.849 62.7313 304.849 65.526C304.849 67.638 305.137 69.654 305.713 71.574C306.311 73.494 307.196 75.2113 308.369 76.726C309.564 78.2193 311.047 79.4033 312.817 80.278C314.609 81.1527 316.7 81.59 319.089 81.59C321.031 81.59 322.641 81.3447 323.921 80.854C325.223 80.342 326.3 79.7553 327.153 79.094C328.007 78.4113 328.721 77.814 329.297 77.302C329.895 76.79 330.449 76.534 330.961 76.534C331.537 76.534 331.932 76.6727 332.145 76.95C332.359 77.206 332.465 77.6113 332.465 78.166C332.465 78.7633 332.156 79.4567 331.537 80.246C330.919 81.0353 330.012 81.8033 328.817 82.55C327.644 83.2753 326.204 83.8833 324.497 84.374C322.791 84.8647 320.871 85.11 318.737 85.11ZM340.435 83.766C339.667 83.766 339.123 83.3287 338.803 82.454C338.483 81.558 338.281 80.0753 338.195 78.006C338.174 76.8113 338.153 75.6167 338.131 74.422C338.131 73.206 338.131 72.0007 338.131 70.806C338.153 69.6113 338.185 68.4273 338.227 67.254C338.291 66.0807 338.345 64.918 338.387 63.766C338.494 61.6753 338.654 59.606 338.867 57.558C339.081 55.4887 339.369 53.4513 339.731 51.446C340.115 49.4407 340.585 47.478 341.139 45.558C341.438 44.662 341.801 44.022 342.227 43.638C342.675 43.2327 343.219 43.03 343.859 43.03C344.307 43.03 344.659 43.19 344.915 43.51C345.171 43.83 345.299 44.2353 345.299 44.726C345.299 45.0247 345.225 45.654 345.075 46.614C344.947 47.574 344.777 48.7047 344.563 50.006C344.371 51.286 344.169 52.5767 343.955 53.878C343.763 55.1793 343.593 56.3633 343.443 57.43C343.315 58.4753 343.251 59.2113 343.251 59.638C343.273 60.1713 343.326 60.5553 343.411 60.79C343.518 61.0247 343.742 61.142 344.083 61.142C344.425 61.142 344.809 61.046 345.235 60.854C345.662 60.6407 346.131 60.3527 346.643 59.99C347.966 59.094 349.737 57.8887 351.955 56.374C354.174 54.838 356.478 53.142 358.867 51.286C360.702 49.878 362.259 48.726 363.539 47.83C364.819 46.934 365.715 46.486 366.227 46.486C366.547 46.486 366.803 46.5393 366.995 46.646C367.187 46.7527 367.326 46.902 367.411 47.094C367.518 47.2647 367.571 47.478 367.571 47.734C367.571 47.99 367.433 48.3207 367.155 48.726C366.899 49.1313 366.515 49.59 366.003 50.102C365.513 50.5927 364.905 51.1473 364.179 51.766C363.454 52.3633 362.633 53.0033 361.715 53.686C360.35 54.6673 358.835 55.7233 357.171 56.854C355.529 57.9847 353.95 59.0513 352.435 60.054C350.942 61.0353 349.737 61.814 348.819 62.39C348.307 62.6887 347.945 62.9447 347.731 63.158C347.539 63.35 347.443 63.542 347.443 63.734C347.443 63.9047 347.518 64.1073 347.667 64.342C347.817 64.5767 348.062 64.8433 348.403 65.142C348.745 65.462 349.31 65.9847 350.099 66.71C350.91 67.414 351.817 68.214 352.819 69.11C353.822 70.006 354.814 70.8913 355.795 71.766C356.777 72.6407 357.641 73.4193 358.387 74.102C359.134 74.7847 359.646 75.254 359.923 75.51C362.121 77.5153 363.667 79.0513 364.563 80.118C365.481 81.1847 365.939 81.878 365.939 82.198C365.939 82.4967 365.875 82.742 365.747 82.934C365.641 83.1047 365.47 83.2327 365.235 83.318C365.001 83.4247 364.713 83.478 364.371 83.478C363.731 83.478 362.835 83.1153 361.683 82.39C360.531 81.6433 358.889 80.2567 356.755 78.23C354.558 76.1393 352.798 74.4433 351.475 73.142C350.174 71.8407 349.129 70.806 348.339 70.038C347.571 69.2487 346.931 68.598 346.419 68.086C345.929 67.5527 345.385 66.998 344.787 66.422C344.51 66.1233 344.275 65.8993 344.083 65.75C343.913 65.5793 343.763 65.462 343.635 65.398C343.507 65.334 343.401 65.302 343.315 65.302C343.123 65.302 342.985 65.3767 342.899 65.526C342.814 65.654 342.771 65.91 342.771 66.294C342.771 66.3793 342.761 66.774 342.739 67.478C342.739 68.182 342.729 69.0353 342.707 70.038C342.707 71.0193 342.686 72.0327 342.643 73.078C342.622 74.102 342.601 75.0193 342.579 75.83C342.579 76.6407 342.569 77.1847 342.547 77.462C342.505 79.9367 342.345 81.6113 342.067 82.486C341.811 83.3393 341.267 83.766 340.435 83.766Z" fill="#DFFFD8"/>
<path d="M191.627 26.19L187.627 15.69" stroke="#DFFFD8" stroke-width="3" stroke-linecap="round"/>
<path d="M197.627 27.19L199.627 14.19" stroke="#DFFFD8" stroke-width="3" stroke-linecap="round"/>
<path d="M205.127 25.69L209.627 16.69" stroke="#DFFFD8" stroke-width="3" stroke-linecap="round"/>
<path d="M77.127 108.69L73.127 114.19" stroke="#DFFFD8" stroke-width="3" stroke-linecap="round"/>
<path d="M82.627 110.19L79.127 117.69" stroke="#DFFFD8" stroke-width="3" stroke-linecap="round"/>
<path d="M513.627 99.69L516.627 101.69" stroke="#DFFFD8" stroke-width="3" stroke-linecap="round"/>
<path d="M515.627 94.69L519.627 96.19" stroke="#DFFFD8" stroke-width="3" stroke-linecap="round"/>
<path d="M518.127 89.69L523.627 90.69" stroke="#DFFFD8" stroke-width="3" stroke-linecap="round"/>
</svg>
