<svg width="128" height="128" viewBox="0 0 128 128" fill="none" xmlns="http://www.w3.org/2000/svg">
<path d="M12.522 12C12.522 12 20.6887 6.80246 25.1886 5.80247C29.6886 4.80248 75.1886 2.30245 103.189 5.80247C107.919 6.39374 109.66 9.59728 113.189 12.8025C117.297 16.5344 120.689 18.8025 122.189 23.8025C123.689 28.8025 124.189 98.3025 122.189 103.302C120.189 108.302 119.338 112.554 115.189 116.802C111.398 120.684 107.189 123.802 103.189 123.802C99.1886 123.802 35.6886 123.802 35.6886 123.802C35.6886 123.802 24.6998 124.727 18.6886 121.802C12.7289 118.903 9.02188 118.605 4.52189 109.802C0.0218999 101 2.5218 23.605 4.52189 19.3025C6.52197 15 12.522 12 12.522 12Z" fill="#DFFFD8"/>
<path d="M9.5 38V82" stroke="#194916" stroke-width="3" stroke-linecap="round"/>
<path d="M9 87.5C9 87.5 9.67371 100.73 14.5 107C19.6711 113.718 33.5 117.5 33.5 117.5" stroke="#194916" stroke-width="3" stroke-linecap="round"/>
<path d="M50 116.5C50 116.5 90.5 118.5 96.5 116.5C102.5 114.5 103.802 113.975 107 110.5C109.018 108.307 111 104 111 104" stroke="#194916" stroke-width="3" stroke-linecap="round"/>
<path d="M115.5 94C113.177 94.5339 112 99 112 99C112 99 114.842 104.299 117.5 103.5C118.697 103.14 119.709 102.716 120 101.5C120.305 100.226 118.5 98.5 118.5 98.5C118.5 98.5 120.257 96.7844 120 95.5C119.637 93.6835 117.305 93.5851 115.5 94Z" stroke="#194916" stroke-width="3" stroke-linecap="round"/>
<path d="M114.5 89V48.5" stroke="#194916" stroke-width="3" stroke-linecap="round"/>
<path d="M11.5 25C11.5 25 13.8164 17.1446 18 15.5C20.7259 14.4285 27 14.5 27 14.5" stroke="#194916" stroke-width="3" stroke-linecap="round"/>
<path d="M37.5 12.5H92" stroke="#194916" stroke-width="3" stroke-linecap="round"/>
<path d="M95.5 13C95.5 13 106.47 14.1461 110.5 19C114.221 23.4816 114 33.5 114 33.5V43.5" stroke="#194916" stroke-width="3" stroke-linecap="round"/>
<path d="M64.579 81.92C61.6563 81.92 59.043 81.472 56.739 80.576C54.4563 79.7013 52.515 78.4427 50.915 76.8C49.3363 75.1573 48.131 73.184 47.299 70.88C46.467 68.576 46.051 66.0053 46.051 63.168C46.051 60.1173 46.4777 57.312 47.331 54.752C48.2057 52.1707 49.4857 49.9307 51.171 48.032C52.8777 46.1333 54.9683 44.672 57.443 43.648C59.939 42.6027 62.8083 42.08 66.051 42.08C67.843 42.08 69.4643 42.272 70.915 42.656C72.387 43.0187 73.635 43.488 74.659 44.064C75.683 44.6187 76.4723 45.2053 77.027 45.824C77.5817 46.4427 77.859 46.9973 77.859 47.488C77.859 47.9573 77.7097 48.288 77.411 48.48C77.1123 48.672 76.7923 48.768 76.451 48.768C76.003 48.768 75.5763 48.5973 75.171 48.256C74.7657 47.9147 74.2003 47.5307 73.475 47.104C72.771 46.656 71.7683 46.2613 70.467 45.92C69.187 45.5787 67.459 45.408 65.283 45.408C63.5337 45.408 61.795 45.7707 60.067 46.496C58.339 47.2 56.771 48.2667 55.363 49.696C53.955 51.104 52.8243 52.864 51.971 54.976C51.1177 57.088 50.691 59.5413 50.691 62.336C50.691 64.448 50.979 66.464 51.555 68.384C52.1523 70.304 53.0377 72.0213 54.211 73.536C55.4057 75.0293 56.8883 76.2133 58.659 77.088C60.451 77.9627 62.5417 78.4 64.931 78.4C66.8723 78.4 68.483 78.1547 69.763 77.664C71.0643 77.152 72.1417 76.5653 72.995 75.904C73.8483 75.2213 74.563 74.624 75.139 74.112C75.7363 73.6 76.291 73.344 76.803 73.344C77.379 73.344 77.7737 73.4827 77.987 73.76C78.2003 74.016 78.307 74.4213 78.307 74.976C78.307 75.5733 77.9977 76.2667 77.379 77.056C76.7603 77.8453 75.8537 78.6133 74.659 79.36C73.4857 80.0853 72.0457 80.6933 70.339 81.184C68.6323 81.6747 66.7123 81.92 64.579 81.92Z" fill="#194916"/>
</svg>
