<svg width="512" height="512" viewBox="0 0 512 512" fill="none" xmlns="http://www.w3.org/2000/svg">
<path d="M113 189C113 189 75.6153 214.237 70.5001 239.5C65.2919 265.222 73.129 284.28 91.0001 303.5C106.343 320.001 121.251 322.612 143 328.5C174.099 336.919 225.5 328.5 225.5 328.5" stroke="#DFFFD8" stroke-width="6" stroke-linecap="round"/>
<path d="M275 355.5L285 305.5L303 290.5L319.5 305.5L329 367.5" stroke="#DFFFD8" stroke-width="6" stroke-linecap="round"/>
<path d="M188.5 330.5L139 428L146.5 460.5L182 488L217 496.5" stroke="#DFFFD8" stroke-width="6" stroke-linecap="round"/>
<path d="M328 364C328 386.455 335.849 442.961 328 464C323.116 477.092 319.746 485.707 308.5 494C292.377 505.889 277.532 499.381 257.5 499.5C236.303 499.626 203.5 494 203.5 494" stroke="#DFFFD8" stroke-width="6" stroke-linecap="round"/>
<path d="M144 405.5L130 368.5C130 368.5 117.42 370.163 110.5 374C89.3187 385.747 88.2189 409.756 93 433.5C97.0199 453.464 105.165 465.813 122.5 476.5C139.307 486.862 172.5 484 172.5 484" stroke="#DFFFD8" stroke-width="6" stroke-linecap="round"/>
<path d="M219.332 417L205.332 380C205.332 380 192.751 381.663 185.832 385.5C164.651 397.247 163.551 421.256 168.332 445C172.352 464.964 180.497 480.813 197.832 491.5C214.639 501.862 247.832 499 247.832 499" stroke="#DFFFD8" stroke-width="6" stroke-linecap="round"/>
<path d="M148.5 186.5C148.5 186.5 184.35 169.929 209 167C224.124 165.203 248 167 248 167" stroke="#DFFFD8" stroke-width="6" stroke-linecap="round"/>
<path d="M239.5 167C239.5 167 253.421 120.277 275 100C282.627 92.833 296.5 84 296.5 84C296.5 84 311.401 96.2489 319.5 105.5C334.036 122.104 348.5 154 348.5 154" stroke="#DFFFD8" stroke-width="6" stroke-linecap="round"/>
<path d="M91 213.5C91 213.5 95.1623 124.791 132.5 90.5C139.892 83.7111 153 75 153 75C153 75 170.541 86.0602 179 96C191.515 110.707 196.683 121.895 199.5 141C200.981 151.045 199.5 167 199.5 167" stroke="#DFFFD8" stroke-width="6" stroke-linecap="round"/>
<path d="M331.5 420.5C331.5 420.5 365.232 397.229 389.5 388C400.007 384.005 417 379.5 417 379.5C417 379.5 419.332 395.318 417 405C412.147 425.151 397.465 431.409 381 444C368.975 453.195 362.463 461.21 347.5 463.5C341.324 464.445 331.5 463.5 331.5 463.5" stroke="#DFFFD8" stroke-width="6" stroke-linecap="round"/>
<path d="M81.5 146.5C81.5 146.5 124.225 70.0713 170 43C197.111 26.9667 214.503 16.065 246 16C277.681 15.9347 299.317 21.4077 322.5 43C340.473 59.7391 347.317 74.1061 353 98C357.879 118.516 353 152 353 152" stroke="#DFFFD8" stroke-width="6" stroke-linecap="round"/>
<path d="M101 166C101 166 87.7592 153.53 77 151C50.3992 144.746 35.113 171.005 23 195.5C12.3113 217.115 10.8133 233.833 17.5 257C22.3103 273.666 26.4033 284.891 40.5 295C50.5872 302.233 58.3442 308.012 70.5 305.5C78.3051 303.887 88 295 88 295" stroke="#DFFFD8" stroke-width="6" stroke-linecap="round"/>
<path d="M351 151C332.45 180.485 322.05 197.015 303.5 226.5L309.5 294L351 319C351 319 379.341 308.334 397.5 301.5M397.5 301.5C420.024 284.704 430.244 267.345 434 239.5C437.169 216.009 439.64 195.833 422 180C409.543 168.819 397.47 164.511 381 167.5C359.939 171.322 352.295 187.718 343 207C335.317 222.937 332.156 233.963 334.5 251.5C336.596 267.182 351 288.5 351 288.5C351 288.5 379.341 296.423 397.5 301.5Z" stroke="#DFFFD8" stroke-width="6" stroke-linecap="round"/>
<path d="M222 225H301" stroke="#DFFFD8" stroke-width="6" stroke-linecap="round"/>
<path d="M195 223H107.5" stroke="#DFFFD8" stroke-width="6" stroke-linecap="round"/>
<path d="M389.105 126.574L401.981 105" stroke="#DFFFD8" stroke-width="6" stroke-linecap="round"/>
<path d="M431.052 149.002L447.338 129.578" stroke="#DFFFD8" stroke-width="6" stroke-linecap="round"/>
<path d="M471.798 194.721L488.741 192.504" stroke="#DFFFD8" stroke-width="6" stroke-linecap="round"/>
<path d="M24.3187 163.035L6.99988 152.938" stroke="#DFFFD8" stroke-width="6" stroke-linecap="round"/>
<path d="M41.8697 129.384L26.2389 116.549" stroke="#DFFFD8" stroke-width="6" stroke-linecap="round"/>
<path d="M78.0149 96.5005L76.1073 82.9999" stroke="#DFFFD8" stroke-width="6" stroke-linecap="round"/>
<path d="M95 231.5L59 199.5" stroke="#DFFFD8" stroke-width="6" stroke-linecap="round"/>
<path d="M89 248.5L44.5 237.5" stroke="#DFFFD8" stroke-width="6" stroke-linecap="round"/>
</svg>
