<svg width="128" height="128" viewBox="0 0 128 128" fill="none" xmlns="http://www.w3.org/2000/svg">
<path d="M15.522 12C15.522 12 23.6887 6.80246 28.1886 5.80247C32.6886 4.80248 78.1886 2.30245 106.189 5.80247C110.919 6.39374 112.66 9.59728 116.189 12.8025C120.297 16.5344 123.689 18.8025 125.189 23.8025C126.689 28.8025 127.189 98.3025 125.189 103.302C123.189 108.302 122.338 112.554 118.189 116.802C114.398 120.684 110.189 123.802 106.189 123.802C102.189 123.802 38.6886 123.802 38.6886 123.802C38.6886 123.802 27.6998 124.727 21.6886 121.802C15.7289 118.903 12.0219 118.605 7.52189 109.802C3.0219 101 5.5218 23.605 7.52189 19.3025C9.52197 15 15.522 12 15.522 12Z" fill="#194916"/>
<path d="M13.5 38V82" stroke="#DFFFD8" stroke-width="3" stroke-linecap="round"/>
<path d="M13 87.5C13 87.5 13.6737 100.73 18.5 107C23.6711 113.718 37.5 117.5 37.5 117.5" stroke="#DFFFD8" stroke-width="3" stroke-linecap="round"/>
<path d="M54 116.5C54 116.5 94.5 118.5 100.5 116.5C106.5 114.5 107.802 113.975 111 110.5C113.018 108.307 115 104 115 104" stroke="#DFFFD8" stroke-width="3" stroke-linecap="round"/>
<path d="M118.5 89V48.5" stroke="#DFFFD8" stroke-width="3" stroke-linecap="round"/>
<path d="M15.5 25C15.5 25 17.8164 17.1446 22 15.5C24.7259 14.4285 31 14.5 31 14.5" stroke="#DFFFD8" stroke-width="3" stroke-linecap="round"/>
<path d="M41.5 12.5H96" stroke="#DFFFD8" stroke-width="3" stroke-linecap="round"/>
<path d="M99.5 13C99.5 13 110.47 14.1461 114.5 19C118.221 23.4816 118 33.5 118 33.5V43.5" stroke="#DFFFD8" stroke-width="3" stroke-linecap="round"/>
<path d="M23 22.5V103.5" stroke="#DFFFD8" stroke-width="3" stroke-linecap="round"/>
<path d="M109 23V104" stroke="#DFFFD8" stroke-width="3" stroke-linecap="round"/>
<path d="M55.365 83.48C54.085 83.48 53.0183 83.2453 52.165 82.776C51.3117 82.3067 50.629 81.6133 50.117 80.696C49.605 79.7787 49.2103 78.6587 48.933 77.336C48.549 75.5867 48.2823 73.5067 48.133 71.096C48.005 68.664 47.941 65.9547 47.941 62.968C47.941 60.5787 47.9943 58.328 48.101 56.216C48.2077 54.104 48.421 52.248 48.741 50.648C49.125 48.664 49.7437 47.096 50.597 45.944C51.4717 44.7707 52.7943 44.184 54.565 44.184C57.9997 44.184 61.1997 44.5893 64.165 45.4C67.1517 46.1893 69.8397 47.256 72.229 48.6C74.6397 49.944 76.6983 51.4587 78.405 53.144C80.133 54.8293 81.4557 56.568 82.373 58.36C83.2903 60.152 83.749 61.88 83.749 63.544C83.749 65.592 83.3117 67.5973 82.437 69.56C81.5837 71.5013 80.3463 73.3147 78.725 75C77.125 76.664 75.1623 78.136 72.837 79.416C70.533 80.6747 67.909 81.6667 64.965 82.392C62.021 83.1173 58.821 83.48 55.365 83.48ZM56.837 79.576C59.8237 79.576 62.5117 79.256 64.901 78.616C67.3117 77.9547 69.4237 77.08 71.237 75.992C73.0503 74.8827 74.565 73.6347 75.781 72.248C77.0183 70.8613 77.9463 69.4 78.565 67.864C79.1837 66.328 79.493 64.824 79.493 63.352C79.493 62.1147 79.1197 60.792 78.373 59.384C77.6263 57.976 76.549 56.6 75.141 55.256C73.7543 53.912 72.069 52.696 70.085 51.608C68.101 50.4987 65.8717 49.6133 63.397 48.952C60.9223 48.2907 58.245 47.96 55.365 47.96C54.661 47.96 54.0957 48.3013 53.669 48.984C53.2637 49.6667 52.9543 50.584 52.741 51.736C52.5063 52.8453 52.325 54.1147 52.197 55.544C52.0903 56.9733 52.037 58.4667 52.037 60.024C52.037 63.736 52.0903 66.904 52.197 69.528C52.325 72.1307 52.5917 74.2213 52.997 75.8C53.637 78.3173 54.917 79.576 56.837 79.576Z" fill="#DFFFD8"/>
</svg>
