<svg width="512" height="512" viewBox="0 0 512 512" fill="none" xmlns="http://www.w3.org/2000/svg">
<circle cx="256" cy="256" r="254.5" fill="#194916" stroke="#DFFFD8" stroke-width="3"/>
<circle cx="256" cy="256" r="237" fill="#194916" stroke="#DFFFD8" stroke-width="6"/>
<path d="M50 265L121 168.5" stroke="#DFFFD8" stroke-width="6" stroke-linecap="round"/>
<path d="M395.5 194.5L400.5 443.5" stroke="#DFFFD8" stroke-width="6" stroke-linecap="round"/>
<path d="M79.5 229V414" stroke="#DFFFD8" stroke-width="6" stroke-linecap="round"/>
<path d="M81.5 387L155 458" stroke="#DFFFD8" stroke-width="6" stroke-linecap="round"/>
<path d="M116.75 305.75C116.75 305.75 129.846 309.895 138.5 310C147.729 310.112 161.75 305.75 161.75 305.75M116.75 305.75L95 301.5V396H116.75M116.75 305.75V396M116.75 396H161.75M161.75 305.75V396M161.75 305.75L165.5 305.065M161.75 396H185V305.75M165.5 240.5V298M165.5 305.065L185 301.5V305.75M165.5 305.065V298M245.5 298C247.257 288.237 250 273 250 273V231.5C250 231.5 227.332 219.589 211.5 218.5C196.672 217.48 174 225 174 225L169 231.5M245.5 298C242.766 300.759 241.635 302.772 238.5 305.065C229.848 311.392 222.218 309.904 211.5 310C201.019 310.094 185 305.75 185 305.75M245.5 298C236.811 296.34 223.25 293.75 223.25 293.75M165.5 298L183.25 293.75M183.25 293.75C183.25 293.75 193.88 289.83 201 289.5C209.837 289.091 223.25 293.75 223.25 293.75M183.25 293.75V225M223.25 293.75L228 231.5" stroke="#DFFFD8" stroke-width="6" stroke-linecap="round"/>
<path d="M268 235.5C268 235.5 273.79 272.069 277.5 295.5M277.5 295.5C290.387 291.009 297.613 288.491 310.5 284M277.5 295.5C290.86 302.373 300.673 303.922 315.5 301.5C328.004 299.458 335.281 296.127 345 288M310.5 284C323.973 285.562 331.527 286.438 345 288M310.5 284C308.157 263.497 304.5 231.5 304.5 231.5M345 288C343.438 263.397 341 225 341 225C341 225 318.883 216.838 304.5 218.5C291.101 220.048 272.5 231.5 272.5 231.5M422.5 266V424.5M386 162.5C371.211 167.157 352 183 352 183C352 183 345 190.887 345 197C345 210.668 380 197 380 197L422.5 177C422.5 177 436.506 168.549 433 162.5C430.269 157.788 419.5 159 419.5 159C419.5 159 398.546 158.549 386 162.5ZM99.0001 133.5C99.0001 133.5 79.222 129.887 75.5001 138.5C71.8203 147.015 87.5001 159 87.5001 159C87.5001 159 111.352 172.265 128 177C143.751 181.479 169.5 183 169.5 183C169.5 183 180.38 182.064 183.5 177C188.787 168.418 165 159 165 159C165 159 143.742 143.508 128 138.5C117.049 135.016 99.0001 133.5 99.0001 133.5Z" stroke="#DFFFD8" stroke-width="6" stroke-linecap="round"/>
<path d="M386.5 258C386.5 258 411.748 248.139 428.5 249C442.029 249.696 442 252 462 258C482 264 457.5 266 457.5 266C457.5 266 434.782 268.193 420.5 266C412.963 264.843 401.5 261.5 401.5 261.5" stroke="#DFFFD8" stroke-width="6" stroke-linecap="round"/>
<path d="M291.5 331.5C264.436 330.456 244.63 341.393 230.5 364.5C217.334 386.031 215.818 406.135 226.5 429C235.845 449.004 248.396 459.614 269.677 465.5M291.5 331.5C309.616 332.199 321.193 336.686 334.5 349C350.707 363.998 356.376 379.435 355.5 401.5C354.702 421.588 348.617 434.187 334.5 448.5C317.151 466.091 276.5 465.5 276.5 465.5C276.5 465.5 272.341 465.5 269.677 465.5M291.5 331.5C277.124 323.316 258.498 317.293 242.5 321.5C224.147 326.326 215.3 336.75 205.5 353C197.328 366.551 194.143 376.179 194.5 392C194.868 408.298 198.276 418.416 208 431.5C217.857 444.763 227.62 448.813 242.5 456C252.624 460.89 258.711 463.018 269.677 465.5M391 299.5V337L379.25 336.138M391 299.5H367.5M391 299.5L355.5 292M367.5 299.5H364L316 306V331.5L367.5 335.277M367.5 299.5V335.277M367.5 335.277L379.25 336.138M379.25 336.138V439" stroke="#DFFFD8" stroke-width="6" stroke-linecap="round"/>
<path d="M199 483.5C199 483.5 197.436 464.642 202 454C204.989 447.031 213 438 213 438" stroke="#DFFFD8" stroke-width="6" stroke-linecap="round"/>
<path d="M161.5 300L122 295.5" stroke="#DFFFD8" stroke-width="6" stroke-linecap="round"/>
<path d="M377.5 441.5L420.5 350.5L450.5 391" stroke="#DFFFD8" stroke-width="6" stroke-linecap="round"/>
<path d="M353.5 417L373 461.5" stroke="#DFFFD8" stroke-width="6" stroke-linecap="round"/>
<path d="M195.5 387.5L219.5 406" stroke="#DFFFD8" stroke-width="6" stroke-linecap="round"/>
<path d="M209 349L229.5 362" stroke="#DFFFD8" stroke-width="6" stroke-linecap="round"/>
<path d="M238 324L260.5 336" stroke="#DFFFD8" stroke-width="6" stroke-linecap="round"/>
</svg>
