<svg width="128" height="128" viewBox="0 0 128 128" fill="none" xmlns="http://www.w3.org/2000/svg">
<path d="M15.522 12C15.522 12 23.6887 6.80246 28.1886 5.80247C32.6886 4.80248 78.1886 2.30245 106.189 5.80247C110.919 6.39374 112.66 9.59728 116.189 12.8025C120.297 16.5344 123.689 18.8025 125.189 23.8025C126.689 28.8025 127.189 98.3025 125.189 103.302C123.189 108.302 122.338 112.554 118.189 116.802C114.398 120.684 110.189 123.802 106.189 123.802C102.189 123.802 38.6886 123.802 38.6886 123.802C38.6886 123.802 27.6998 124.727 21.6886 121.802C15.7289 118.903 12.0219 118.605 7.52189 109.802C3.0219 101 5.5218 23.605 7.52189 19.3025C9.52197 15 15.522 12 15.522 12Z" fill="#DFFFD8"/>
<path d="M13.5 38V82" stroke="#194916" stroke-width="3" stroke-linecap="round"/>
<path d="M13 87.5C13 87.5 13.6737 100.73 18.5 107C23.6711 113.718 37.5 117.5 37.5 117.5" stroke="#194916" stroke-width="3" stroke-linecap="round"/>
<path d="M54 116.5C54 116.5 94.5 118.5 100.5 116.5C106.5 114.5 107.802 113.975 111 110.5C113.018 108.307 115 104 115 104" stroke="#194916" stroke-width="3" stroke-linecap="round"/>
<path d="M118.5 89V48.5" stroke="#194916" stroke-width="3" stroke-linecap="round"/>
<path d="M15.5 25C15.5 25 17.8164 17.1446 22 15.5C24.7259 14.4285 31 14.5 31 14.5" stroke="#194916" stroke-width="3" stroke-linecap="round"/>
<path d="M41.5 12.5H96" stroke="#194916" stroke-width="3" stroke-linecap="round"/>
<path d="M99.5 13C99.5 13 110.47 14.1461 114.5 19C118.221 23.4816 118 33.5 118 33.5V43.5" stroke="#194916" stroke-width="3" stroke-linecap="round"/>
<path d="M23 22.5V103.5" stroke="#194916" stroke-width="3" stroke-linecap="round"/>
<path d="M109 23V104" stroke="#194916" stroke-width="3" stroke-linecap="round"/>
<path d="M65.6038 85.368C62.4038 85.368 59.5771 84.888 57.1238 83.928C54.6918 82.9893 52.6438 81.6133 50.9798 79.8C49.3371 77.9653 48.0998 75.7147 47.2678 73.048C46.4358 70.3813 46.0198 67.3307 46.0198 63.896C46.0198 60.952 46.4038 58.3707 47.1718 56.152C47.9611 53.912 49.0384 51.992 50.4038 50.392C51.7691 48.792 53.3371 47.4907 55.1078 46.488C56.8998 45.464 58.8091 44.7173 60.8358 44.248C62.8624 43.7787 64.9104 43.544 66.9798 43.544C68.6011 43.544 70.1691 43.6933 71.6838 43.992C73.2198 44.2693 74.5851 44.6427 75.7798 45.112C76.9958 45.5813 77.9558 46.0827 78.6598 46.616C79.3638 47.1493 79.7158 47.672 79.7158 48.184C79.7158 48.5893 79.5664 48.9307 79.2677 49.208C78.9904 49.4853 78.6384 49.624 78.2118 49.624C77.8704 49.624 77.4224 49.4853 76.8678 49.208C76.3131 48.9307 75.5878 48.6213 74.6918 48.28C73.7958 47.9173 72.6544 47.5973 71.2678 47.32C69.9024 47.0427 68.2064 46.904 66.1798 46.904C64.0038 46.904 61.9664 47.288 60.0678 48.056C58.1904 48.8027 56.5264 49.912 55.0758 51.384C53.6251 52.8347 52.4944 54.6267 51.6838 56.76C50.8731 58.872 50.4678 61.304 50.4678 64.056C50.4678 68.2373 51.0864 71.6293 52.3238 74.232C53.5824 76.8133 55.3851 78.7013 57.7318 79.896C60.0784 81.0693 62.8838 81.656 66.1478 81.656C68.1318 81.656 69.9771 81.4533 71.6838 81.048C73.4118 80.6427 74.9158 80.0347 76.1958 79.224C77.4971 78.392 78.4998 77.3467 79.2038 76.088C79.9291 74.8293 80.2918 73.3573 80.2918 71.672C80.2918 70.3067 79.9184 69.112 79.1718 68.088C78.4251 67.0427 77.3158 66.2213 75.8438 65.624C74.3931 65.0267 72.6011 64.7173 70.4678 64.696C68.4624 64.6533 66.9264 64.5467 65.8598 64.376C64.7931 64.184 64.2598 63.7467 64.2598 63.064C64.2598 62.5307 64.4944 62.136 64.9638 61.88C65.4331 61.624 66.1584 61.4533 67.1398 61.368C68.1211 61.2827 69.4011 61.24 70.9798 61.24C73.0704 61.24 74.9478 61.4427 76.6118 61.848C78.2971 62.2533 79.7264 62.872 80.8998 63.704C82.0731 64.5147 82.9691 65.5493 83.5878 66.808C84.2278 68.0667 84.5478 69.5387 84.5478 71.224C84.5478 73.72 84.0784 75.864 83.1398 77.656C82.2224 79.448 80.9104 80.92 79.2038 82.072C77.5184 83.2027 75.5238 84.0347 73.2198 84.568C70.9158 85.1013 68.3771 85.368 65.6038 85.368Z" fill="#194916"/>
</svg>
