<svg width="512" height="512" viewBox="0 0 512 512" fill="none" xmlns="http://www.w3.org/2000/svg">
<circle cx="256" cy="256" r="254.5" fill="#194916" stroke="#DFFFD8" stroke-width="3"/>
<circle cx="256" cy="256" r="237" fill="#194916" stroke="#DFFFD8" stroke-width="6"/>
<path d="M236.208 253.491L210.208 248.491C210.208 248.491 193.119 252.266 184.708 258.991C176.162 265.824 171.952 271.541 168.708 281.991C165.524 292.248 173.94 300.112 168.708 309.491C164.141 317.678 157.218 318.62 149.208 323.491C137.789 330.435 128.096 328.999 118.208 337.991C107.474 347.752 103.389 356.335 100.208 370.491C97.7248 381.541 96.8366 388.679 100.208 399.491C105.469 416.363 117.994 420.988 132.208 431.491C150.471 444.986 162.363 452.446 184.708 456.491C199.887 459.239 209.814 462.037 224.208 456.491C238.023 451.168 252.708 431.491 252.708 431.491C252.708 431.491 261.99 414.764 262.708 402.991C263.261 393.922 259.931 389.048 259.208 379.991C258.4 369.87 259.208 353.991 259.208 353.991C259.208 353.991 257.923 347.385 259.208 343.491C261.62 336.184 275.208 331.991 275.208 331.991C275.208 331.991 283.917 323.732 287.208 316.991C289.538 312.218 290.816 309.288 291.208 303.991C291.725 297 292.276 291.335 287.208 286.491C283.59 283.033 275.208 281.991 275.208 281.991M275.208 281.991L198.208 399.491L183.919 389.741M275.208 281.991L323.708 196.491L341.208 184.491M299.708 163.491L155.708 370.491L169.63 379.991M299.708 163.491L294.708 144.991L299.708 137.193M299.708 163.491C299.708 163.491 306.717 163.491 311.208 163.491M341.208 184.491L360.208 176.491L362.825 171.491M341.208 184.491C341.208 184.491 330.542 179.615 323.708 176.491M299.708 137.193L279.708 127.991C279.708 127.991 277.145 120.938 279.708 117.991C282.655 114.602 291.208 117.991 291.208 117.991L305.609 127.991M299.708 137.193L305.609 127.991M305.609 127.991L323.708 99.7648M323.708 99.7648L311.208 87.991C311.208 87.991 302.154 79.5747 305.609 75.491C308.534 72.0327 317.208 75.491 317.208 75.491L331.258 87.991M323.708 99.7648L331.258 87.991M331.258 87.991C331.258 87.991 334.105 82.4527 336.708 79.491C353.69 60.1725 400.865 87.7854 393.708 112.491C392.241 117.554 387.448 124.45 387.448 124.45M387.448 124.45L406.208 127.991L411.708 137.193C411.708 137.193 415.903 147.43 411.708 150.491C407.255 153.74 398.708 144.991 398.708 144.991L383.708 131.595M387.448 124.45L383.708 131.595M383.708 131.595L362.825 171.491M371.708 163.491L383.708 171.491C383.708 171.491 386.851 174.127 387.448 176.491C388.954 182.451 371.708 176.491 371.708 176.491L362.825 171.491M311.208 163.491C255.918 248.04 169.63 379.991 169.63 379.991M311.208 163.491C316.09 168.568 318.826 171.414 323.708 176.491M169.63 379.991L183.919 389.741M183.919 389.741C183.919 389.741 269.117 259.77 323.708 176.491M311.208 144.991C315.73 153.251 331.258 131.595 331.258 131.595L341.208 117.991C341.208 117.991 346.564 105.329 341.208 103.491C336.252 101.79 335.004 108.828 331.258 112.491C325.415 118.202 317.208 127.991 317.208 127.991C317.208 127.991 307.827 138.815 311.208 144.991ZM375.208 120.491C369.95 116.586 360.208 127.991 360.208 127.991L348.208 144.991C348.208 144.991 334.366 159.905 341.208 163.491C346.855 166.451 355.708 155.991 355.708 155.991L371.708 137.193C371.708 137.193 380.558 124.465 375.208 120.491Z" stroke="#DFFFD8" stroke-width="6" stroke-linecap="round"/>
<circle cx="219.208" cy="321.991" r="22" stroke="#DFFFD8" stroke-width="6"/>
</svg>
