<svg width="128" height="128" viewBox="0 0 128 128" fill="none" xmlns="http://www.w3.org/2000/svg">
<path d="M15.522 12C15.522 12 23.6887 6.80246 28.1886 5.80247C32.6886 4.80248 78.1886 2.30245 106.189 5.80247C110.919 6.39374 112.66 9.59728 116.189 12.8025C120.297 16.5344 123.689 18.8025 125.189 23.8025C126.689 28.8025 127.189 98.3025 125.189 103.302C123.189 108.302 122.338 112.554 118.189 116.802C114.398 120.684 110.189 123.802 106.189 123.802C102.189 123.802 38.6886 123.802 38.6886 123.802C38.6886 123.802 27.6998 124.727 21.6886 121.802C15.7289 118.903 12.0219 118.605 7.52189 109.802C3.0219 101 5.5218 23.605 7.52189 19.3025C9.52197 15 15.522 12 15.522 12Z" fill="#DFFFD8"/>
<path d="M13.5 38V82" stroke="#194916" stroke-width="3" stroke-linecap="round"/>
<path d="M13 87.5C13 87.5 13.6737 100.73 18.5 107C23.6711 113.718 37.5 117.5 37.5 117.5" stroke="#194916" stroke-width="3" stroke-linecap="round"/>
<path d="M54 116.5C54 116.5 94.5 118.5 100.5 116.5C106.5 114.5 107.802 113.975 111 110.5C113.018 108.307 115 104 115 104" stroke="#194916" stroke-width="3" stroke-linecap="round"/>
<path d="M118.5 89V48.5" stroke="#194916" stroke-width="3" stroke-linecap="round"/>
<path d="M15.5 25C15.5 25 17.8164 17.1446 22 15.5C24.7259 14.4285 31 14.5 31 14.5" stroke="#194916" stroke-width="3" stroke-linecap="round"/>
<path d="M41.5 12.5H96" stroke="#194916" stroke-width="3" stroke-linecap="round"/>
<path d="M99.5 13C99.5 13 110.47 14.1461 114.5 19C118.221 23.4816 118 33.5 118 33.5V43.5" stroke="#194916" stroke-width="3" stroke-linecap="round"/>
<path d="M23 22.5V103.5" stroke="#194916" stroke-width="3" stroke-linecap="round"/>
<path d="M109 23V104" stroke="#194916" stroke-width="3" stroke-linecap="round"/>
<path d="M78.9548 83.448C78.4854 83.448 78.1228 83.2773 77.8668 82.936C77.6321 82.5947 77.4934 82.008 77.4508 81.176C77.4294 80.1947 77.4188 79.1707 77.4188 78.104C77.4188 77.0373 77.4294 75.96 77.4508 74.872C77.4721 73.784 77.4828 72.7387 77.4828 71.736C77.5041 70.7333 77.5148 69.8053 77.5148 68.952C77.5361 68.0773 77.5468 67.3413 77.5468 66.744C77.5468 65.6133 77.4294 64.8773 77.1948 64.536C76.9814 64.1947 76.6934 63.96 76.3308 63.832C75.8828 63.6827 74.8588 63.5333 73.2588 63.384C71.6588 63.2347 69.0561 63.16 65.4508 63.16C63.3601 63.16 61.6854 63.1707 60.4268 63.192C59.1681 63.2133 58.1868 63.2453 57.4828 63.288C56.8001 63.3093 56.2668 63.352 55.8828 63.416C55.5201 63.48 55.1894 63.5653 54.8908 63.672C54.5708 63.7787 54.2721 63.992 53.9948 64.312C53.7174 64.6107 53.5681 65.1653 53.5468 65.976C53.5254 66.3387 53.5041 66.7867 53.4828 67.32C53.4828 67.832 53.4721 68.4293 53.4508 69.112C53.4508 69.7947 53.4508 70.5733 53.4508 71.448C53.4508 72.3227 53.4401 73.304 53.4188 74.392C53.4188 75.48 53.4188 76.696 53.4188 78.04C53.3761 79.5547 53.2694 80.6853 53.0988 81.432C52.9281 82.1787 52.6934 82.68 52.3948 82.936C52.0961 83.1707 51.7334 83.288 51.3068 83.288C50.6241 83.288 50.1548 82.776 49.8988 81.752C49.6428 80.728 49.4614 79.48 49.3548 78.008C49.3121 77.1333 49.2694 76.0347 49.2268 74.712C49.1841 73.3893 49.1521 72.0027 49.1308 70.552C49.1094 69.08 49.0881 67.672 49.0668 66.328C49.0454 64.9627 49.0348 63.8107 49.0348 62.872C49.0348 61.2933 49.0454 59.832 49.0668 58.488C49.1094 57.1227 49.1628 55.864 49.2268 54.712C49.2908 53.5387 49.3548 52.472 49.4188 51.512C49.4828 50.552 49.5574 49.6773 49.6428 48.888C49.7708 47.5653 49.9414 46.5093 50.1548 45.72C50.3681 44.9093 50.6348 44.3227 50.9548 43.96C51.2961 43.576 51.6908 43.384 52.1388 43.384C52.6721 43.384 53.0561 43.7467 53.2908 44.472C53.5254 45.176 53.6748 46.5093 53.7388 48.472C53.7388 49.2613 53.7494 50.0293 53.7708 50.776C53.7921 51.5227 53.8134 52.2373 53.8348 52.92C53.8561 53.5813 53.8668 54.1893 53.8668 54.744C53.8881 55.2987 53.9094 55.7787 53.9308 56.184C53.9521 56.5893 53.9734 56.9093 53.9948 57.144C54.0588 57.8907 54.1761 58.4667 54.3468 58.872C54.5388 59.256 54.9654 59.4693 55.6267 59.512C56.5228 59.5547 57.8988 59.5653 59.7548 59.544C61.6108 59.5227 63.5628 59.512 65.6108 59.512C67.2321 59.512 68.7788 59.544 70.2508 59.608C71.7441 59.672 73.0348 59.7253 74.1228 59.768C75.2108 59.8107 75.9361 59.8107 76.2988 59.768C76.7041 59.7253 77.0134 59.5653 77.2268 59.288C77.4401 58.9893 77.5788 58.424 77.6428 57.592C77.6641 57.208 77.6854 56.6853 77.7068 56.024C77.7281 55.3627 77.7494 54.584 77.7708 53.688C77.7921 52.7707 77.8134 51.8 77.8348 50.776C77.8561 49.7307 77.8881 48.664 77.9308 47.576C77.9948 45.656 78.1868 44.344 78.5068 43.64C78.8268 42.936 79.2321 42.584 79.7228 42.584C80.2774 42.584 80.6828 42.9467 80.9388 43.672C81.1948 44.376 81.4081 45.6773 81.5788 47.576C81.6428 48.024 81.6961 48.728 81.7388 49.688C81.7814 50.6267 81.8241 51.7467 81.8668 53.048C81.9094 54.328 81.9414 55.7253 81.9628 57.24C81.9841 58.7333 81.9948 60.2373 81.9948 61.752C81.9948 62.9253 81.9734 64.1947 81.9308 65.56C81.9094 66.904 81.8668 68.2693 81.8028 69.656C81.7388 71.0213 81.6641 72.3547 81.5788 73.656C81.5148 74.936 81.4401 76.12 81.3548 77.208C81.2694 78.2747 81.1841 79.1813 81.0988 79.928C80.9281 81.3147 80.6614 82.2533 80.2988 82.744C79.9361 83.2133 79.4881 83.448 78.9548 83.448Z" fill="#194916"/>
</svg>
