<svg width="600" height="128" viewBox="0 0 600 128" fill="none" xmlns="http://www.w3.org/2000/svg">
<rect width="600" height="128" rx="20" fill="#194916"/>
<path d="M519.127 38.19C513.916 31.19 507.237 26.7182 497.627 23.19C484.613 18.4123 475.49 20.19 461.627 20.19C364.386 20.19 213.127 23.19 213.127 23.19M512.127 104.19C505.56 112.741 488.627 115.19 488.627 115.19H86.6268M72.1268 107.69C65.2215 100.598 66.8016 93.0189 65.6268 83.19C64.6304 74.8531 65.6268 61.69 65.6268 61.69C65.6268 61.69 68.0188 49.6525 72.1268 43.19C80.3909 30.1896 91.0213 26.2111 106.127 23.19C121.127 20.19 182.127 23.19 182.127 23.19M525.627 51.19C528.945 63.5027 528.246 74.3041 523.627 86.19" stroke="#DFFFD8" stroke-width="3" stroke-linecap="round"/>
<path d="M253.363 83.638C252.893 83.638 252.531 83.4673 252.275 83.126C252.04 82.7847 251.901 82.198 251.859 81.366C251.837 80.3847 251.827 79.3607 251.827 78.294C251.827 77.2273 251.837 76.15 251.859 75.062C251.88 73.974 251.891 72.9287 251.891 71.926C251.912 70.9233 251.923 69.9953 251.923 69.142C251.944 68.2673 251.955 67.5313 251.955 66.934C251.955 65.8033 251.837 65.0673 251.603 64.726C251.389 64.3847 251.101 64.15 250.739 64.022C250.291 63.8727 249.267 63.7233 247.667 63.574C246.067 63.4247 243.464 63.35 239.859 63.35C237.768 63.35 236.093 63.3607 234.835 63.382C233.576 63.4033 232.595 63.4353 231.891 63.478C231.208 63.4993 230.675 63.542 230.291 63.606C229.928 63.67 229.597 63.7553 229.299 63.862C228.979 63.9687 228.68 64.182 228.403 64.502C228.125 64.8007 227.976 65.3553 227.955 66.166C227.933 66.5287 227.912 66.9767 227.891 67.51C227.891 68.022 227.88 68.6193 227.859 69.302C227.859 69.9847 227.859 70.7633 227.859 71.638C227.859 72.5127 227.848 73.494 227.827 74.582C227.827 75.67 227.827 76.886 227.827 78.23C227.784 79.7447 227.677 80.8753 227.507 81.622C227.336 82.3687 227.101 82.87 226.803 83.126C226.504 83.3607 226.141 83.478 225.715 83.478C225.032 83.478 224.563 82.966 224.307 81.942C224.051 80.918 223.869 79.67 223.763 78.198C223.72 77.3233 223.677 76.2247 223.635 74.902C223.592 73.5793 223.56 72.1927 223.539 70.742C223.517 69.27 223.496 67.862 223.475 66.518C223.453 65.1527 223.443 64.0007 223.443 63.062C223.443 61.4833 223.453 60.022 223.475 58.678C223.517 57.3127 223.571 56.054 223.635 54.902C223.699 53.7287 223.763 52.662 223.827 51.702C223.891 50.742 223.965 49.8673 224.051 49.078C224.179 47.7553 224.349 46.6993 224.563 45.91C224.776 45.0993 225.043 44.5127 225.363 44.15C225.704 43.766 226.099 43.574 226.547 43.574C227.08 43.574 227.464 43.9367 227.699 44.662C227.933 45.366 228.083 46.6993 228.147 48.662C228.147 49.4513 228.157 50.2193 228.179 50.966C228.2 51.7127 228.221 52.4273 228.243 53.11C228.264 53.7713 228.275 54.3793 228.275 54.934C228.296 55.4887 228.317 55.9687 228.339 56.374C228.36 56.7793 228.381 57.0993 228.403 57.334C228.467 58.0807 228.584 58.6567 228.755 59.062C228.947 59.446 229.373 59.6593 230.035 59.702C230.931 59.7447 232.307 59.7553 234.163 59.734C236.019 59.7127 237.971 59.702 240.019 59.702C241.64 59.702 243.187 59.734 244.659 59.798C246.152 59.862 247.443 59.9153 248.531 59.958C249.619 60.0007 250.344 60.0007 250.707 59.958C251.112 59.9153 251.421 59.7553 251.635 59.478C251.848 59.1793 251.987 58.614 252.051 57.782C252.072 57.398 252.093 56.8753 252.115 56.214C252.136 55.5527 252.157 54.774 252.179 53.878C252.2 52.9607 252.221 51.99 252.243 50.966C252.264 49.9207 252.296 48.854 252.339 47.766C252.403 45.846 252.595 44.534 252.915 43.83C253.235 43.126 253.64 42.774 254.131 42.774C254.685 42.774 255.091 43.1367 255.347 43.862C255.603 44.566 255.816 45.8673 255.987 47.766C256.051 48.214 256.104 48.918 256.147 49.878C256.19 50.8167 256.232 51.9367 256.275 53.238C256.317 54.518 256.35 55.9153 256.371 57.43C256.392 58.9233 256.403 60.4273 256.403 61.942C256.403 63.1153 256.381 64.3847 256.339 65.75C256.317 67.094 256.275 68.4593 256.211 69.846C256.147 71.2113 256.072 72.5447 255.987 73.846C255.923 75.126 255.848 76.31 255.763 77.398C255.678 78.4647 255.592 79.3713 255.507 80.118C255.336 81.5047 255.069 82.4433 254.707 82.934C254.344 83.4033 253.896 83.638 253.363 83.638ZM275.333 85.398C272.474 85.398 270.181 84.886 268.453 83.862C266.725 82.838 265.445 81.3233 264.613 79.318C263.781 77.2913 263.237 74.7847 262.981 71.798C262.895 71.0087 262.831 70.198 262.789 69.366C262.767 68.534 262.746 67.67 262.725 66.774C262.703 65.878 262.693 64.95 262.693 63.99C262.693 63.0087 262.693 62.006 262.693 60.982C262.693 57.4833 262.991 54.614 263.589 52.374C264.207 50.1127 265.199 48.3527 266.565 47.094C267.951 45.814 269.786 44.918 272.069 44.406C274.351 43.894 277.146 43.638 280.453 43.638C282.031 43.638 283.557 43.702 285.029 43.83C286.501 43.9367 287.813 44.1073 288.965 44.342C290.117 44.5553 291.023 44.8113 291.685 45.11C292.367 45.4087 292.709 45.75 292.709 46.134C292.709 46.4753 292.602 46.7313 292.389 46.902C292.175 47.0727 291.877 47.1793 291.493 47.222C290.853 47.2433 289.978 47.19 288.869 47.062C287.759 46.934 286.49 46.806 285.061 46.678C283.653 46.5287 282.159 46.454 280.581 46.454C278.063 46.454 275.951 46.6353 274.245 46.998C272.538 47.3607 271.162 47.9687 270.117 48.822C269.071 49.6753 268.314 50.8593 267.845 52.374C267.397 53.8673 267.173 55.7447 267.173 58.006C267.173 59.094 267.311 59.894 267.589 60.406C267.866 60.8967 268.538 61.206 269.605 61.334C270.671 61.4407 272.399 61.494 274.789 61.494C275.194 61.494 275.77 61.494 276.517 61.494C277.285 61.494 278.085 61.494 278.917 61.494C279.77 61.4727 280.549 61.462 281.253 61.462C281.978 61.462 282.511 61.462 282.853 61.462C284.453 61.462 285.519 61.5793 286.053 61.814C286.607 62.0273 286.885 62.3687 286.885 62.838C286.885 63.4993 286.597 63.9367 286.021 64.15C285.445 64.3633 284.613 64.47 283.525 64.47C282.991 64.47 282.362 64.47 281.637 64.47C280.933 64.47 280.175 64.4807 279.365 64.502C278.554 64.502 277.765 64.502 276.997 64.502C276.25 64.502 275.589 64.502 275.013 64.502C272.559 64.502 270.757 64.5553 269.605 64.662C268.474 64.7687 267.749 65.0673 267.429 65.558C267.13 66.0273 266.981 66.7953 266.981 67.862C266.981 69.782 267.045 71.4993 267.173 73.014C267.322 74.5073 267.578 75.8087 267.941 76.918C268.303 78.006 268.826 78.9127 269.509 79.638C270.191 80.3633 271.077 80.9073 272.165 81.27C273.253 81.6113 274.586 81.782 276.165 81.782C278.191 81.782 280.154 81.7073 282.053 81.558C283.973 81.4087 285.69 81.2593 287.205 81.11C288.719 80.9607 289.872 80.886 290.661 80.886C291.279 80.886 291.727 80.982 292.005 81.174C292.282 81.366 292.421 81.6753 292.421 82.102C292.421 82.614 291.888 83.0727 290.821 83.478C289.775 83.8833 288.399 84.2247 286.693 84.502C285.007 84.8007 283.162 85.0247 281.157 85.174C279.173 85.3233 277.231 85.398 275.333 85.398ZM304.168 83.766C301.97 83.19 300.488 81.846 299.72 79.734C298.952 77.6007 298.568 74.7953 298.568 71.318C298.568 70.1873 298.589 68.8753 298.632 67.382C298.696 65.8673 298.77 64.2993 298.856 62.678C298.962 61.0353 299.069 59.446 299.176 57.91C299.282 56.3527 299.389 54.9447 299.496 53.686C299.602 52.4273 299.688 51.4567 299.752 50.774C300.008 48.2353 300.338 46.5287 300.744 45.654C301.149 44.758 301.736 44.31 302.504 44.31C302.93 44.31 303.25 44.4273 303.464 44.662C303.677 44.8967 303.816 45.238 303.88 45.686C303.965 46.134 304.008 46.6887 304.008 47.35C304.008 48.054 303.976 48.9287 303.912 49.974C303.869 50.998 303.816 52.118 303.752 53.334C303.688 54.55 303.613 55.83 303.528 57.174C303.464 58.518 303.4 59.862 303.336 61.206C303.272 62.55 303.218 63.862 303.176 65.142C303.133 66.422 303.112 67.6167 303.112 68.726C303.133 71.03 303.229 72.9287 303.4 74.422C303.592 75.9153 303.986 77.078 304.584 77.91C305.202 78.7207 306.141 79.2967 307.4 79.638C308.68 79.9793 310.429 80.15 312.648 80.15C313.992 80.1713 315.272 80.1607 316.488 80.118C317.704 80.0753 318.717 80.0327 319.528 79.99C321.106 79.8193 322.322 79.6913 323.176 79.606C324.029 79.4993 324.637 79.478 325 79.542C325.298 79.5847 325.501 79.6913 325.608 79.862C325.736 80.0327 325.8 80.2887 325.8 80.63C325.8 81.1207 325.586 81.5367 325.16 81.878C324.754 82.198 324.146 82.486 323.336 82.742C322.525 82.9767 321.512 83.222 320.296 83.478C318.93 83.734 317.405 83.9473 315.72 84.118C314.034 84.2887 312.37 84.374 310.728 84.374C310.152 84.374 309.448 84.3527 308.616 84.31C307.805 84.2673 307.005 84.1927 306.216 84.086C305.426 84.0007 304.744 83.894 304.168 83.766ZM334.383 83.83C333.957 83.83 333.583 83.702 333.263 83.446C332.965 83.19 332.698 82.71 332.463 82.006C332.229 81.302 332.015 80.3207 331.823 79.062C331.738 78.3153 331.631 77.334 331.503 76.118C331.397 74.902 331.279 73.5687 331.151 72.118C331.045 70.646 330.938 69.142 330.831 67.606C330.725 66.0487 330.629 64.534 330.543 63.062C330.458 61.59 330.383 60.246 330.319 59.03C330.277 57.7927 330.255 56.7793 330.255 55.99C330.255 53.0673 330.607 50.7953 331.311 49.174C332.015 47.5527 333.21 46.422 334.895 45.782C336.602 45.142 338.927 44.822 341.871 44.822C344.517 44.822 347.034 45.0673 349.423 45.558C351.834 46.0487 353.978 46.806 355.855 47.83C357.733 48.854 359.205 50.1447 360.271 51.702C361.359 53.2593 361.903 55.1047 361.903 57.238C361.903 58.8807 361.498 60.3207 360.687 61.558C359.898 62.774 358.778 63.798 357.327 64.63C355.898 65.4407 354.202 66.102 352.239 66.614C350.298 67.1047 348.186 67.4567 345.903 67.67C344.41 67.798 342.885 67.8833 341.327 67.926C339.791 67.9473 338.245 67.958 336.687 67.958C336.197 67.958 335.877 68.1607 335.727 68.566C335.599 68.95 335.535 69.5047 335.535 70.23C335.535 70.7633 335.546 71.414 335.567 72.182C335.589 72.95 335.621 73.782 335.663 74.678C335.727 75.5527 335.781 76.4273 335.823 77.302C335.866 78.1553 335.898 78.9447 335.919 79.67C335.962 80.3953 335.983 80.9927 335.983 81.462C335.983 82.2727 335.845 82.87 335.567 83.254C335.29 83.638 334.895 83.83 334.383 83.83ZM337.231 65.238C339.194 65.238 341.157 65.174 343.119 65.046C345.103 64.8967 346.981 64.6407 348.751 64.278C350.522 63.9153 352.101 63.414 353.487 62.774C354.874 62.134 355.962 61.334 356.751 60.374C357.541 59.414 357.935 58.262 357.935 56.918C357.935 55.382 357.541 54.0913 356.751 53.046C355.983 51.9793 354.981 51.094 353.743 50.39C352.527 49.6647 351.215 49.11 349.807 48.726C348.399 48.3207 347.055 48.0433 345.775 47.894C344.517 47.7233 343.471 47.638 342.639 47.638C341.018 47.638 339.674 47.7767 338.607 48.054C337.541 48.31 336.698 48.7153 336.079 49.27C335.482 49.8033 335.066 50.4753 334.831 51.286C334.597 52.0753 334.479 53.014 334.479 54.102C334.479 55.7447 334.501 57.1847 334.543 58.422C334.586 59.6593 334.661 60.7153 334.767 61.59C334.895 62.4647 335.055 63.1687 335.247 63.702C335.461 64.2353 335.727 64.63 336.047 64.886C336.367 65.1207 336.762 65.238 337.231 65.238Z" fill="#DFFFD8"/>
<path d="M191.627 26.19L187.627 15.69" stroke="#DFFFD8" stroke-width="3" stroke-linecap="round"/>
<path d="M197.627 27.19L199.627 14.19" stroke="#DFFFD8" stroke-width="3" stroke-linecap="round"/>
<path d="M205.127 25.69L209.627 16.69" stroke="#DFFFD8" stroke-width="3" stroke-linecap="round"/>
<path d="M77.1268 108.69L73.1268 114.19" stroke="#DFFFD8" stroke-width="3" stroke-linecap="round"/>
<path d="M82.6268 110.19L79.1268 117.69" stroke="#DFFFD8" stroke-width="3" stroke-linecap="round"/>
<path d="M513.627 99.69L516.627 101.69" stroke="#DFFFD8" stroke-width="3" stroke-linecap="round"/>
<path d="M515.627 94.69L519.627 96.19" stroke="#DFFFD8" stroke-width="3" stroke-linecap="round"/>
<path d="M518.127 89.69L523.627 90.69" stroke="#DFFFD8" stroke-width="3" stroke-linecap="round"/>
<path d="M441 115L443 103.5L436.5 89C436.5 89 432.764 80.5955 435 76C436.149 73.6377 437.035 71.9094 439.5 71C441.332 70.324 444.5 71 444.5 71C444.5 71 444.543 64.4103 447.5 62.5C450.124 60.8046 453.171 60.4172 455.5 62.5C456.933 63.7821 457.5 67 457.5 67C457.5 67 458.783 62.5634 461 61C462.819 59.7169 464.308 59.1129 466.5 59.5C468.962 59.9348 471.332 60.3904 472.5 62.6015C473.868 65.1914 472.5 70.1015 472.5 70.1015C472.5 70.1015 474.556 67.896 477 68C480.788 68.1612 481.359 72.3845 482.5 76C483.675 79.7241 482.981 82.1245 482.5 86C482.08 89.3842 480.5 94.5 480.5 94.5L478.5 99.5L480.5 108L482.5 115" stroke="#DFFFD8" stroke-width="3" stroke-linecap="round"/>
<path d="M451.764 83.5416C453.778 81.479 455.404 80.4056 458.264 80.0416C461.271 79.6589 465.764 82.0416 465.764 82.0416C465.764 82.0416 469.538 83.8624 470.764 86.0416C471.835 87.9441 473.134 89.8418 471.764 91.5416C470.634 92.9433 469.064 92.5033 467.264 92.5416C465.273 92.584 464.253 91.4469 462.264 91.5416C460.656 91.6182 459.796 92.0452 458.264 92.5416C455.605 93.4036 454.418 96.4208 451.764 95.5416C449.794 94.8889 448.89 93.5206 448.264 91.5416C447.235 88.2904 449.382 85.9814 451.764 83.5416Z" stroke="#DFFFD8" stroke-width="3" stroke-linecap="round"/>
<path d="M440 83C438.757 81.2051 439.119 78.6072 441 77.5C443.033 76.3034 445.888 77.7213 446.5 80C446.999 81.8573 446.272 83.7539 444.5 84.5C442.793 85.2187 441.054 84.523 440 83Z" stroke="#DFFFD8" stroke-width="3" stroke-linecap="round"/>
<path d="M449 72.5C447.594 70.4693 448.594 67.0598 451 66.5C453.057 66.0213 453.492 67.9499 454 70C454.462 71.8667 453.772 73.7539 452 74.5C450.293 75.2187 450.054 74.023 449 72.5Z" stroke="#DFFFD8" stroke-width="3" stroke-linecap="round"/>
<path d="M461.5 68C461.947 65.6588 463.722 64.2978 466 65C468.086 65.6431 468.966 67.8672 468.5 70C468.025 72.1751 466.694 73.3809 464.5 73C462.256 72.6104 461.073 70.2368 461.5 68Z" stroke="#DFFFD8" stroke-width="3" stroke-linecap="round"/>
<path d="M471.5 76.5C472.269 74.5428 474.689 73.4316 476.5 74.5C478.358 75.5957 478.456 78.4091 477 80C475.913 81.1877 474.459 81.682 473 81C471.322 80.2154 470.822 78.224 471.5 76.5Z" stroke="#DFFFD8" stroke-width="3" stroke-linecap="round"/>
<path d="M455 100.5C455 100.5 457.703 101.384 459.5 101.5C462.903 101.719 468 99.5 468 99.5" stroke="#DFFFD8" stroke-width="3" stroke-linecap="round"/>
<path d="M146.146 24L144.146 35.5L150.646 50C150.646 50 154.382 58.4045 152.146 63C150.997 65.3623 150.111 67.0906 147.646 68C145.815 68.676 142.646 68 142.646 68C142.646 68 142.603 74.5897 139.646 76.5C137.022 78.1954 133.975 78.5828 131.646 76.5C130.213 75.2179 129.646 72 129.646 72C129.646 72 128.363 76.4366 126.146 78C124.327 79.2831 122.839 79.8871 120.646 79.5C118.184 79.0652 115.814 78.6096 114.646 76.3985C113.278 73.8086 114.646 68.8985 114.646 68.8985C114.646 68.8985 112.591 71.104 110.146 71C106.359 70.8388 105.788 66.6155 104.646 63C103.471 59.2759 104.166 56.8755 104.646 53C105.066 49.6158 106.646 44.5 106.646 44.5L108.646 39.5L106.646 31L104.646 24" stroke="#DFFFD8" stroke-width="3" stroke-linecap="round"/>
<path d="M135.382 55.4584C133.368 57.521 131.742 58.5944 128.882 58.9584C125.875 59.3411 121.382 56.9584 121.382 56.9584C121.382 56.9584 117.609 55.1376 116.382 52.9584C115.312 51.0559 114.012 49.1582 115.382 47.4584C116.512 46.0567 118.082 46.4967 119.882 46.4584C121.873 46.416 122.893 47.5531 124.882 47.4584C126.491 47.3818 127.351 46.9548 128.882 46.4584C131.542 45.5964 132.728 42.5792 135.382 43.4584C137.353 44.1111 138.256 45.4794 138.882 47.4584C139.911 50.7096 137.765 53.0186 135.382 55.4584Z" stroke="#DFFFD8" stroke-width="3" stroke-linecap="round"/>
<path d="M147.146 56C148.389 57.7949 148.028 60.3928 146.146 61.5C144.113 62.6966 141.258 61.2787 140.646 59C140.148 57.1427 140.874 55.2461 142.646 54.5C144.354 53.7813 146.092 54.477 147.146 56Z" stroke="#DFFFD8" stroke-width="3" stroke-linecap="round"/>
<path d="M138.146 66.5C139.552 68.5307 138.552 71.9402 136.146 72.5C134.089 72.9787 133.654 71.0501 133.146 69C132.684 67.1333 133.374 65.2461 135.146 64.5C136.854 63.7813 137.092 64.977 138.146 66.5Z" stroke="#DFFFD8" stroke-width="3" stroke-linecap="round"/>
<path d="M125.646 71C125.2 73.3412 123.424 74.7022 121.146 74C119.06 73.3569 118.181 71.1328 118.646 69C119.121 66.8249 120.453 65.6191 122.646 66C124.89 66.3896 126.073 68.7632 125.646 71Z" stroke="#DFFFD8" stroke-width="3" stroke-linecap="round"/>
<path d="M115.646 62.5C114.877 64.4572 112.458 65.5684 110.646 64.5C108.789 63.4043 108.69 60.5909 110.146 59C111.234 57.8123 112.688 57.318 114.146 58C115.824 58.7846 116.324 60.776 115.646 62.5Z" stroke="#DFFFD8" stroke-width="3" stroke-linecap="round"/>
<path d="M132.146 38.5C132.146 38.5 129.443 37.6158 127.646 37.5C124.243 37.2807 119.146 39.5 119.146 39.5" stroke="#DFFFD8" stroke-width="3" stroke-linecap="round"/>
</svg>
