<svg width="128" height="128" viewBox="0 0 128 128" fill="none" xmlns="http://www.w3.org/2000/svg">
<path d="M15.522 12C15.522 12 23.6887 6.80246 28.1886 5.80247C32.6886 4.80248 78.1886 2.30245 106.189 5.80247C110.919 6.39374 112.66 9.59728 116.189 12.8025C120.297 16.5344 123.689 18.8025 125.189 23.8025C126.689 28.8025 127.189 98.3025 125.189 103.302C123.189 108.302 122.338 112.554 118.189 116.802C114.398 120.684 110.189 123.802 106.189 123.802C102.189 123.802 38.6886 123.802 38.6886 123.802C38.6886 123.802 27.6998 124.727 21.6886 121.802C15.7289 118.903 12.0219 118.605 7.52189 109.802C3.0219 101 5.5218 23.605 7.52189 19.3025C9.52197 15 15.522 12 15.522 12Z" fill="#194916"/>
<path d="M13.5 38V82" stroke="#DFFFD8" stroke-width="3" stroke-linecap="round"/>
<path d="M13 87.5C13 87.5 13.6737 100.73 18.5 107C23.6711 113.718 37.5 117.5 37.5 117.5" stroke="#DFFFD8" stroke-width="3" stroke-linecap="round"/>
<path d="M54 116.5C54 116.5 94.5 118.5 100.5 116.5C106.5 114.5 107.802 113.975 111 110.5C113.018 108.307 115 104 115 104" stroke="#DFFFD8" stroke-width="3" stroke-linecap="round"/>
<path d="M118.5 89V48.5" stroke="#DFFFD8" stroke-width="3" stroke-linecap="round"/>
<path d="M15.5 25C15.5 25 17.8164 17.1446 22 15.5C24.7259 14.4285 31 14.5 31 14.5" stroke="#DFFFD8" stroke-width="3" stroke-linecap="round"/>
<path d="M41.5 12.5H96" stroke="#DFFFD8" stroke-width="3" stroke-linecap="round"/>
<path d="M99.5 13C99.5 13 110.47 14.1461 114.5 19C118.221 23.4816 118 33.5 118 33.5V43.5" stroke="#DFFFD8" stroke-width="3" stroke-linecap="round"/>
<path d="M23 22.5V103.5" stroke="#DFFFD8" stroke-width="3" stroke-linecap="round"/>
<path d="M109 23V104" stroke="#DFFFD8" stroke-width="3" stroke-linecap="round"/>
<path d="M63.4268 84.952C62.1041 84.952 60.8348 84.8133 59.6188 84.536C58.4241 84.2587 57.3254 83.8427 56.3228 83.288C55.3414 82.7547 54.5094 82.1147 53.8268 81.368C52.9308 80.3653 52.1948 79.224 51.6188 77.944C51.0641 76.6427 50.6588 75.2987 50.4028 73.912C50.1468 72.504 50.0188 71.1067 50.0188 69.72C50.0188 69.1013 50.0614 68.568 50.1468 68.12C50.2534 67.672 50.3921 67.288 50.5628 66.968C50.7548 66.648 50.9788 66.4133 51.2348 66.264C51.4908 66.1147 51.7788 66.04 52.0988 66.04C52.5254 66.04 52.8561 66.2427 53.0908 66.648C53.3468 67.032 53.5388 67.7893 53.6668 68.92C53.7734 70.3493 53.9334 71.64 54.1468 72.792C54.3814 73.9227 54.7228 74.9787 55.1708 75.96C55.9601 77.688 57.0054 78.968 58.3068 79.8C59.6294 80.6107 61.2401 81.016 63.1388 81.016C65.0374 81.016 66.5521 80.7493 67.6828 80.216C68.8348 79.6827 69.8481 78.8613 70.7228 77.752C71.7041 76.536 72.4401 75.032 72.9308 73.24C73.4214 71.448 73.7414 69.4853 73.8908 67.352C74.0614 65.1973 74.1468 63 74.1468 60.76C74.1468 58.776 74.1148 57.016 74.0508 55.48C74.0081 53.9227 73.9441 52.568 73.8588 51.416C73.7734 50.2427 73.6881 49.2507 73.6028 48.44C73.5174 47.608 73.4428 46.9253 73.3788 46.392C73.3148 45.8587 73.2828 45.432 73.2828 45.112C73.2828 44.7067 73.3468 44.376 73.4748 44.12C73.6241 43.864 73.8374 43.6827 74.1148 43.576C74.3921 43.448 74.7548 43.384 75.2028 43.384C75.6721 43.384 76.0561 43.5013 76.3548 43.736C76.6534 43.9707 76.9201 44.3227 77.1548 44.792C77.3681 45.2187 77.5494 45.7733 77.6988 46.456C77.8694 47.1173 78.0188 47.9173 78.1468 48.856C78.2961 49.7947 78.4134 50.872 78.4988 52.088C78.6054 53.2827 78.6801 54.616 78.7228 56.088C78.7868 57.5387 78.8188 59.1493 78.8188 60.92C78.8188 64.056 78.6801 66.712 78.4028 68.888C78.1254 71.064 77.7521 72.888 77.2828 74.36C76.8134 75.8107 76.2801 77.0373 75.6828 78.04C75.0854 79.0427 74.4668 79.9173 73.8268 80.664C72.4614 82.3067 70.8401 83.4267 68.9628 84.024C67.1068 84.6427 65.2614 84.952 63.4268 84.952Z" fill="#DFFFD8"/>
</svg>
