<svg width="128" height="128" viewBox="0 0 128 128" fill="none" xmlns="http://www.w3.org/2000/svg">
<g clip-path="url(#clip0_8_997)">
<path d="M10.5001 6.99999C16 2.31585 18.5001 0.999977 23.0001 -1.14441e-05C27.5 -1 73 -3.50003 101 -1.14441e-05C105.73 0.591258 107.472 3.7948 111 6.99999C115.109 10.7319 118.5 13 120 18C121.5 23 122 92.5 120 97.5C118 102.5 117.15 106.752 113 111C109.209 114.881 105 118 101 118C97 118 33.5 118 33.5 118C33.5 118 22.5113 118.924 16.5001 116C10.5404 113.101 4.50006 104 4.50006 104C4.50006 104 3.00002 16.5 4.50006 13.5C6.0001 10.5 7.87008 9.23987 10.5001 6.99999Z" fill="#DFFFD8"/>
<path d="M45.1878 74.536C44.3344 74.536 43.7798 74.184 43.5238 73.48C43.2678 72.776 43.0864 71.8267 42.9798 70.632C42.9158 69.736 42.8624 68.7653 42.8198 67.72C42.7771 66.6747 42.7451 65.5867 42.7238 64.456C42.7238 63.304 42.7131 62.12 42.6918 60.904C42.6918 59.688 42.7024 58.472 42.7238 57.256C42.7664 55.528 42.8198 53.832 42.8838 52.168C42.9691 50.504 43.0651 48.936 43.1718 47.464C43.2784 45.992 43.3958 44.7013 43.5238 43.592C43.6518 42.4827 43.7798 41.6293 43.9078 41.032C44.2491 39.5813 44.7504 38.3973 45.4118 37.48C46.0944 36.5627 46.9158 35.8907 47.8758 35.464C48.8571 35.016 49.9131 34.792 51.0438 34.792C52.5584 34.792 53.8064 35.208 54.7878 36.04C55.7904 36.8507 56.5264 38.0347 56.9958 39.592C57.2731 40.4667 57.5504 41.5547 57.8278 42.856C58.1264 44.1573 58.4144 45.5333 58.6918 46.984C58.9691 48.4133 59.2251 49.8107 59.4598 51.176C59.6944 52.5413 59.8971 53.7467 60.0678 54.792C60.3024 56.2427 60.5691 57.512 60.8678 58.6C61.1664 59.688 61.6571 60.232 62.3398 60.232C62.9158 60.232 63.3424 59.816 63.6198 58.984C63.9184 58.152 64.1318 57.256 64.2598 56.296C64.4091 55.0373 64.5798 53.6507 64.7718 52.136C64.9638 50.6213 65.1771 49.096 65.4118 47.56C65.6678 46.0027 65.9344 44.52 66.2118 43.112C66.4891 41.704 66.7664 40.4667 67.0438 39.4C67.4918 37.992 68.2064 36.8933 69.1878 36.104C70.1904 35.2933 71.4278 34.888 72.8997 34.888C73.8811 34.888 74.7878 35.0907 75.6198 35.496C76.4518 35.88 77.1878 36.4667 77.8278 37.256C78.4891 38.0453 79.0331 39.0373 79.4598 40.232C79.8224 41.1493 80.1211 42.472 80.3558 44.2C80.6118 45.928 80.8038 47.9333 80.9318 50.216C81.0811 52.4773 81.1878 54.8773 81.2518 57.416C81.2518 58.5253 81.2624 59.6453 81.2838 60.776C81.3051 61.9067 81.3051 63.048 81.2838 64.2C81.2838 65.3307 81.2731 66.4507 81.2518 67.56C81.2304 68.648 81.1878 69.7253 81.1238 70.792C81.0384 71.7307 80.8358 72.4133 80.5158 72.84C80.1958 73.2667 79.6731 73.48 78.9478 73.48C78.4998 73.48 78.1371 73.32 77.8598 73C77.6038 72.68 77.4544 72.168 77.4118 71.464C77.3904 70.5467 77.3691 69.5867 77.3478 68.584C77.3478 67.5813 77.3264 66.5467 77.2838 65.48C77.2624 64.4133 77.2411 63.336 77.2198 62.248C77.1984 61.16 77.1771 60.0827 77.1558 59.016C77.1131 56.84 77.0384 54.76 76.9318 52.776C76.8464 50.7707 76.7291 49 76.5798 47.464C76.4518 45.9067 76.2598 44.7333 76.0037 43.944C75.5771 42.5573 75.1078 41.5227 74.5958 40.84C74.0838 40.136 73.3158 39.784 72.2918 39.784C71.5024 39.784 70.7878 40.0933 70.1478 40.712C69.5291 41.3307 69.0811 42.2907 68.8038 43.592C68.6544 44.232 68.4944 45.0533 68.3238 46.056C68.1531 47.0373 67.9718 48.1253 67.7798 49.32C67.6091 50.4933 67.4278 51.7093 67.2358 52.968C67.0651 54.2053 66.9051 55.432 66.7558 56.648C66.6064 57.8427 66.4678 58.9307 66.3398 59.912C66.1051 61.8107 65.6571 63.2293 64.9958 64.168C64.3558 65.1067 63.4598 65.576 62.3078 65.576C60.8358 65.576 59.8011 64.9253 59.2038 63.624C58.6278 62.3013 58.1158 60.5733 57.6678 58.44C57.5184 57.6507 57.3371 56.7013 57.1238 55.592C56.9318 54.4613 56.7184 53.2773 56.4838 52.04C56.2704 50.7813 56.0464 49.5547 55.8118 48.36C55.5771 47.1653 55.3638 46.0987 55.1718 45.16C55.0011 44.2213 54.8411 43.496 54.6918 42.984C54.4144 41.768 53.9771 40.872 53.3798 40.296C52.8038 39.72 52.1424 39.432 51.3958 39.432C50.2651 39.432 49.4544 39.8053 48.9638 40.552C48.4944 41.2773 48.1211 42.504 47.8438 44.232C47.7371 44.8507 47.6411 45.672 47.5558 46.696C47.4704 47.6987 47.3958 48.84 47.3318 50.12C47.2891 51.4 47.2464 52.7547 47.2038 54.184C47.1611 55.6133 47.1398 57.064 47.1398 58.536C47.1398 60.008 47.1398 61.4373 47.1398 62.824C47.1398 64.1893 47.1291 65.48 47.1078 66.696C47.1078 67.8907 47.0971 68.936 47.0758 69.832C47.0758 70.728 47.0651 71.432 47.0438 71.944C46.9584 72.712 46.7878 73.3307 46.5318 73.8C46.2971 74.2907 45.8491 74.536 45.1878 74.536Z" fill="#194916"/>
<path d="M97 5.5C97 5.5 27.5 5.5 24 5.5C20.5 5.5 19 5.5 14 10C12.0089 11.792 11.2071 23.0986 11.1211 36.5M115 21.5C115 27.5 115 43.1364 115 57C115 70.2778 120 88.5 115 91C110 93.5 105.5 53.5 103.5 42C101.5 30.5 103.5 93.5 103.5 93.5C103.5 93.5 72 93 78.5 96C85 99 114 104.5 111 108C108 111.5 36 109.5 31.5 108C27 106.5 30.2196 100.124 27.5 96C23.8878 90.523 16.5 93 14 86C12.7248 82.4294 11.4495 63.8979 11.1697 46" stroke="#194916" stroke-width="3" stroke-linecap="round"/>
<path d="M101.5 10.5V5" stroke="#194916" stroke-width="3" stroke-linecap="round"/>
<path d="M105.5 13.5L109 10" stroke="#194916" stroke-width="3" stroke-linecap="round"/>
<path d="M110 18.5L115 17" stroke="#194916" stroke-width="3" stroke-linecap="round"/>
</g>
<defs>
<clipPath id="clip0_8_997">
<rect width="128" height="128" fill="white"/>
</clipPath>
</defs>
</svg>
