<svg width="128" height="128" viewBox="0 0 128 128" fill="none" xmlns="http://www.w3.org/2000/svg">
<g clip-path="url(#clip0_8_1005)">
<path d="M10.5001 7.00001C16 2.31587 18.5001 0.999992 23.0001 3.8147e-06C27.5 -0.999985 73 -3.50001 101 3.8147e-06C105.73 0.591273 107.472 3.79482 111 7.00001C115.109 10.732 118.5 13 120 18C121.5 23 122 92.5 120 97.5C118 102.5 117.15 106.752 113 111C109.209 114.881 105 118 101 118C97 118 33.5 118 33.5 118C33.5 118 22.5113 118.924 16.5001 116C10.5404 113.101 4.50006 104 4.50006 104C4.50006 104 3.00002 16.5 4.50006 13.5C6.0001 10.5 7.87008 9.23989 10.5001 7.00001Z" fill="#DFFFD8"/>
<path d="M76 10C76 10 77.4517 13.6276 79.5 14.5C82.7136 15.8688 87.5 10.5 87.5 10.5" stroke="#194916" stroke-width="3" stroke-linecap="round"/>
<path d="M16 35.2272C16 35.2272 19.8558 34.5953 21.151 32.7845C23.1831 29.9435 18.9779 24.1083 18.9779 24.1083" stroke="#194916" stroke-width="3" stroke-linecap="round"/>
<path d="M14.5 20.0002C14.5 20.0002 13.0001 9.00034 29 7.00017C45 5 73 7.00017 73 7.00017" stroke="#194916" stroke-width="3" stroke-linecap="round"/>
<path d="M10.5 35.5V75" stroke="#194916" stroke-width="3" stroke-linecap="round"/>
<path d="M10.5 80C10.5 80 9 96.5 12 100.5C15 104.5 16.1334 105.328 19.5 107.5C24.0145 110.412 29.0001 112 32.5 112C36 112 86.5 112 86.5 112" stroke="#194916" stroke-width="3" stroke-linecap="round"/>
<path d="M97.5 109C97.5 109 104.83 109.094 108.5 105.5C111.681 102.385 113.5 96 113.5 96" stroke="#194916" stroke-width="3" stroke-linecap="round"/>
<path d="M116 85.5V42.5" stroke="#194916" stroke-width="3" stroke-linecap="round"/>
<path d="M90.5 7C90.5 7 104.534 8.84537 110 15C115.629 21.3389 115.5 36 115.5 36" stroke="#194916" stroke-width="3" stroke-linecap="round"/>
<path d="M47.7788 74.536C47.2454 74.536 46.8081 74.2693 46.4668 73.736C46.1468 73.2027 45.8908 72.456 45.6988 71.496C45.5921 70.9627 45.4748 70.0133 45.3468 68.648C45.2188 67.2613 45.0908 65.6293 44.9628 63.752C44.8561 61.8533 44.7388 59.88 44.6108 57.832C44.5041 55.7627 44.3974 53.768 44.2908 51.848C44.2054 49.9067 44.1414 48.2 44.0988 46.728C44.0561 45.2347 44.0348 44.1573 44.0348 43.496C44.0348 41.768 44.1308 40.3173 44.3228 39.144C44.5361 37.9493 44.9201 37.0533 45.4748 36.456C46.0294 35.8373 46.8401 35.528 47.9068 35.528C48.8028 35.528 49.7948 36.0933 50.8828 37.224C51.9708 38.3547 53.3468 40.1467 55.0108 42.6C56.6748 45.032 58.7761 48.2213 61.3148 52.168C64.8988 57.7573 67.6828 61.8107 69.6668 64.328C71.6721 66.8453 73.0481 68.104 73.7948 68.104C74.2001 68.104 74.5308 67.9867 74.7868 67.752C75.0428 67.496 75.2348 66.984 75.3628 66.216C75.4908 65.448 75.5654 64.2853 75.5868 62.728C75.6081 62.0667 75.5974 61.064 75.5548 59.72C75.5121 58.3547 75.4588 56.808 75.3948 55.08C75.3521 53.352 75.2988 51.592 75.2348 49.8C75.1708 47.9867 75.1068 46.2907 75.0428 44.712C75.0001 43.112 74.9574 41.768 74.9148 40.68C74.8934 39.5707 74.8934 38.8773 74.9148 38.6C75.0001 37.4693 75.1814 36.712 75.4588 36.328C75.7574 35.9227 76.1948 35.72 76.7708 35.72C77.1121 35.72 77.4108 35.7947 77.6668 35.944C77.9441 36.072 78.1681 36.2853 78.3388 36.584C78.5094 36.8827 78.6481 37.2987 78.7548 37.832C78.8614 38.344 78.9361 38.984 78.9788 39.752C79.0001 40.2853 79.0321 41.2133 79.0748 42.536C79.1388 43.8373 79.2028 45.3733 79.2668 47.144C79.3521 48.8933 79.4161 50.728 79.4588 52.648C79.5228 54.568 79.5761 56.4347 79.6188 58.248C79.6614 60.04 79.6828 61.64 79.6828 63.048C79.7041 64.456 79.6934 65.5227 79.6508 66.248C79.5654 67.848 79.3521 69.2027 79.0108 70.312C78.6694 71.4 78.1574 72.2213 77.4748 72.776C76.8134 73.3307 75.9174 73.608 74.7868 73.608C73.6774 73.608 72.3974 72.8827 70.9468 71.432C69.4961 69.96 67.8748 67.944 66.0828 65.384C64.2908 62.8027 62.3281 59.88 60.1948 56.616C58.8508 54.5467 57.5708 52.5947 56.3548 50.76C55.1388 48.9253 54.0401 47.304 53.0588 45.896C52.0988 44.4667 51.2881 43.3573 50.6267 42.568C49.9654 41.7573 49.5068 41.352 49.2508 41.352C48.8454 41.352 48.5681 41.608 48.4188 42.12C48.2908 42.632 48.2268 43.6667 48.2268 45.224C48.2268 46.4613 48.2588 47.8373 48.3228 49.352C48.4081 50.8667 48.5041 52.4453 48.6108 54.088C48.7174 55.7307 48.8348 57.384 48.9628 59.048C49.1121 60.712 49.2294 62.3227 49.3148 63.88C49.4214 65.4373 49.5068 66.8773 49.5708 68.2C49.6348 69.5013 49.6561 70.632 49.6348 71.592C49.5494 72.808 49.3574 73.5973 49.0588 73.96C48.7814 74.344 48.3548 74.536 47.7788 74.536Z" fill="#194916"/>
<path d="M86 108.5C86 108.5 84.3446 101.037 87.5 99C89.7966 97.5172 92.3898 97.2622 94.5 99C95.9845 100.223 96.5 103.5 96.5 103.5" stroke="#194916" stroke-width="3" stroke-linecap="round"/>
</g>
<defs>
<clipPath id="clip0_8_1005">
<rect width="128" height="128" fill="white"/>
</clipPath>
</defs>
</svg>
