<svg width="128" height="128" viewBox="0 0 128 128" fill="none" xmlns="http://www.w3.org/2000/svg">
<path d="M15.522 12C15.522 12 23.6887 6.80246 28.1886 5.80247C32.6886 4.80248 78.1886 2.30245 106.189 5.80247C110.919 6.39374 112.66 9.59728 116.189 12.8025C120.297 16.5344 123.689 18.8025 125.189 23.8025C126.689 28.8025 127.189 98.3025 125.189 103.302C123.189 108.302 122.338 112.554 118.189 116.802C114.398 120.684 110.189 123.802 106.189 123.802C102.189 123.802 38.6886 123.802 38.6886 123.802C38.6886 123.802 27.6998 124.727 21.6886 121.802C15.7289 118.903 12.0219 118.605 7.52189 109.802C3.0219 101 5.5218 23.605 7.52189 19.3025C9.52197 15 15.522 12 15.522 12Z" fill="#DFFFD8"/>
<path d="M13.5 38V82" stroke="#194916" stroke-width="3" stroke-linecap="round"/>
<path d="M13 87.5C13 87.5 13.6737 100.73 18.5 107C23.6711 113.718 37.5 117.5 37.5 117.5" stroke="#194916" stroke-width="3" stroke-linecap="round"/>
<path d="M54 116.5C54 116.5 94.5 118.5 100.5 116.5C106.5 114.5 107.802 113.975 111 110.5C113.018 108.307 115 104 115 104" stroke="#194916" stroke-width="3" stroke-linecap="round"/>
<path d="M118.5 89V48.5" stroke="#194916" stroke-width="3" stroke-linecap="round"/>
<path d="M15.5 25C15.5 25 17.8164 17.1446 22 15.5C24.7259 14.4285 31 14.5 31 14.5" stroke="#194916" stroke-width="3" stroke-linecap="round"/>
<path d="M41.5 12.5H96" stroke="#194916" stroke-width="3" stroke-linecap="round"/>
<path d="M99.5 13C99.5 13 110.47 14.1461 114.5 19C118.221 23.4816 118 33.5 118 33.5V43.5" stroke="#194916" stroke-width="3" stroke-linecap="round"/>
<path d="M23 22.5V103.5" stroke="#194916" stroke-width="3" stroke-linecap="round"/>
<path d="M109 23V104" stroke="#194916" stroke-width="3" stroke-linecap="round"/>
<path d="M63.0355 84.536C61.1582 84.536 59.3875 84.3547 57.7235 83.992C56.0595 83.6507 54.5875 83.2133 53.3075 82.68C52.0275 82.1467 51.0248 81.5813 50.2995 80.984C49.5742 80.3653 49.2115 79.8 49.2115 79.288C49.2115 78.968 49.2755 78.7227 49.4035 78.552C49.5315 78.36 49.7235 78.2213 49.9795 78.136C50.2355 78.0507 50.5022 78.008 50.7795 78.008C51.2488 78.008 51.9848 78.2427 52.9875 78.712C53.9902 79.1813 55.2702 79.6507 56.8275 80.12C58.3848 80.5893 60.2408 80.824 62.3955 80.824C64.4862 80.824 66.2995 80.7387 67.8355 80.568C69.3715 80.3973 70.6515 80.088 71.6755 79.64C72.6995 79.1707 73.4568 78.5413 73.9475 77.752C74.4382 76.9413 74.6835 75.896 74.6835 74.616C74.6835 73.3787 74.3848 72.2907 73.7875 71.352C73.1902 70.392 72.3582 69.5173 71.2915 68.728C70.2248 67.9387 68.9768 67.2027 67.5475 66.52C66.1182 65.8373 64.5715 65.144 62.9075 64.44C61.0728 63.672 59.3662 62.904 57.7875 62.136C56.2088 61.3467 54.8328 60.504 53.6595 59.608C52.4862 58.6907 51.5688 57.6667 50.9075 56.536C50.2675 55.384 49.9475 54.04 49.9475 52.504C49.9475 50.968 50.2888 49.6453 50.9715 48.536C51.6542 47.4267 52.5715 46.5093 53.7235 45.784C54.8968 45.0373 56.1875 44.4613 57.5955 44.056C59.0248 43.6507 60.4755 43.3627 61.9475 43.192C63.4195 43.0213 64.7848 42.936 66.0435 42.936C67.9635 42.936 69.7235 43.096 71.3235 43.416C72.9448 43.736 74.3528 44.152 75.5475 44.664C76.7422 45.1547 77.6595 45.688 78.2995 46.264C78.9608 46.84 79.2915 47.384 79.2915 47.896C79.2915 48.152 79.2275 48.3867 79.0995 48.6C78.9715 48.792 78.8008 48.9413 78.5875 49.048C78.3955 49.1547 78.1608 49.208 77.8835 49.208C77.4782 49.208 76.8168 48.952 75.8995 48.44C74.9822 47.9067 73.7555 47.384 72.2195 46.872C70.7048 46.3387 68.8275 46.072 66.5875 46.072C65.2008 46.072 63.8248 46.168 62.4595 46.36C61.0942 46.552 59.8462 46.8933 58.7155 47.384C57.5848 47.8533 56.6782 48.504 55.9955 49.336C55.3342 50.168 55.0035 51.224 55.0035 52.504C55.0035 53.6773 55.2702 54.7013 55.8035 55.576C56.3582 56.4507 57.1155 57.24 58.0755 57.944C59.0355 58.6267 60.1662 59.2773 61.4675 59.896C62.7688 60.4933 64.1768 61.1013 65.6915 61.72C67.6755 62.5307 69.5208 63.384 71.2275 64.28C72.9342 65.1547 74.4275 66.104 75.7075 67.128C77.0088 68.152 78.0115 69.2933 78.7155 70.552C79.4408 71.8107 79.8035 73.208 79.8035 74.744C79.8035 76.6213 79.3982 78.2 78.5875 79.48C77.7768 80.7387 76.6248 81.7413 75.1315 82.488C73.6382 83.2347 71.8675 83.7573 69.8195 84.056C67.7715 84.376 65.5102 84.536 63.0355 84.536Z" fill="#194916"/>
</svg>
