<svg width="600" height="128" viewBox="0 0 600 128" fill="none" xmlns="http://www.w3.org/2000/svg">
<rect width="600" height="128" rx="20" fill="#194916"/>
<path d="M519.127 38.19C513.916 31.19 507.237 26.7182 497.627 23.19C484.613 18.4123 475.49 20.19 461.627 20.19C364.386 20.19 213.127 23.19 213.127 23.19M512.127 104.19C505.56 112.741 488.627 115.19 488.627 115.19H86.6268M72.1268 107.69C65.2215 100.598 66.8016 93.0189 65.6268 83.19C64.6304 74.8531 65.6268 61.69 65.6268 61.69C65.6268 61.69 68.0188 49.6525 72.1268 43.19C80.3909 30.1896 91.0213 26.2111 106.127 23.19C121.127 20.19 182.127 23.19 182.127 23.19M525.627 51.19C528.945 63.5027 528.246 74.3041 523.627 86.19" stroke="#DFFFD8" stroke-width="3" stroke-linecap="round"/>
<path d="M64.1268 43.19C64.1268 43.19 59.1511 29.8677 60.1268 21.19C60.5766 17.1898 62.6268 11.19 62.6268 11.19C62.6268 11.19 68.1382 10.7625 71.6268 11.19C80.1281 12.2318 91.6268 20.19 91.6268 20.19" stroke="#DFFFD8" stroke-width="3" stroke-linecap="round"/>
<path d="M66.1268 16.19C66.1268 16.19 68.5692 16.0718 70.1268 16.19C76.9275 16.706 86.1268 23.19 86.1268 23.19" stroke="#DFFFD8" stroke-width="3" stroke-linecap="round"/>
<path d="M535.127 43.19C535.127 43.19 540.102 29.8677 539.127 21.19C538.677 17.1898 536.627 11.19 536.627 11.19C536.627 11.19 531.115 10.7625 527.627 11.19C519.125 12.2318 507.627 20.19 507.627 20.19" stroke="#DFFFD8" stroke-width="3" stroke-linecap="round"/>
<path d="M533.127 16.19C533.127 16.19 530.684 16.0718 529.127 16.19C522.326 16.706 513.127 23.19 513.127 23.19" stroke="#DFFFD8" stroke-width="3" stroke-linecap="round"/>
<path d="M216.6 84.726C214.722 84.726 212.952 84.5447 211.288 84.182C209.624 83.8407 208.152 83.4033 206.872 82.87C205.592 82.3367 204.589 81.7713 203.864 81.174C203.138 80.5553 202.776 79.99 202.776 79.478C202.776 79.158 202.84 78.9127 202.968 78.742C203.096 78.55 203.288 78.4113 203.544 78.326C203.8 78.2407 204.066 78.198 204.344 78.198C204.813 78.198 205.549 78.4327 206.552 78.902C207.554 79.3713 208.834 79.8407 210.392 80.31C211.949 80.7793 213.805 81.014 215.96 81.014C218.05 81.014 219.864 80.9287 221.4 80.758C222.936 80.5873 224.216 80.278 225.24 79.83C226.264 79.3607 227.021 78.7313 227.512 77.942C228.002 77.1313 228.248 76.086 228.248 74.806C228.248 73.5687 227.949 72.4807 227.352 71.542C226.754 70.582 225.922 69.7073 224.856 68.918C223.789 68.1287 222.541 67.3927 221.112 66.71C219.682 66.0273 218.136 65.334 216.472 64.63C214.637 63.862 212.93 63.094 211.352 62.326C209.773 61.5367 208.397 60.694 207.224 59.798C206.05 58.8807 205.133 57.8567 204.472 56.726C203.832 55.574 203.512 54.23 203.512 52.694C203.512 51.158 203.853 49.8353 204.536 48.726C205.218 47.6167 206.136 46.6993 207.288 45.974C208.461 45.2273 209.752 44.6513 211.16 44.246C212.589 43.8407 214.04 43.5527 215.512 43.382C216.984 43.2113 218.349 43.126 219.608 43.126C221.528 43.126 223.288 43.286 224.888 43.606C226.509 43.926 227.917 44.342 229.112 44.854C230.306 45.3447 231.224 45.878 231.864 46.454C232.525 47.03 232.856 47.574 232.856 48.086C232.856 48.342 232.792 48.5767 232.664 48.79C232.536 48.982 232.365 49.1313 232.152 49.238C231.96 49.3447 231.725 49.398 231.448 49.398C231.042 49.398 230.381 49.142 229.464 48.63C228.546 48.0967 227.32 47.574 225.784 47.062C224.269 46.5287 222.392 46.262 220.152 46.262C218.765 46.262 217.389 46.358 216.024 46.55C214.658 46.742 213.41 47.0833 212.28 47.574C211.149 48.0433 210.242 48.694 209.56 49.526C208.898 50.358 208.568 51.414 208.568 52.694C208.568 53.8673 208.834 54.8913 209.368 55.766C209.922 56.6407 210.68 57.43 211.64 58.134C212.6 58.8167 213.73 59.4673 215.032 60.086C216.333 60.6833 217.741 61.2913 219.256 61.91C221.24 62.7207 223.085 63.574 224.792 64.47C226.498 65.3447 227.992 66.294 229.272 67.318C230.573 68.342 231.576 69.4833 232.28 70.742C233.005 72.0007 233.368 73.398 233.368 74.934C233.368 76.8113 232.962 78.39 232.152 79.67C231.341 80.9287 230.189 81.9313 228.696 82.678C227.202 83.4247 225.432 83.9473 223.384 84.246C221.336 84.566 219.074 84.726 216.6 84.726ZM251.67 84.502C250.988 84.502 250.486 84.1607 250.166 83.478C249.868 82.7953 249.697 81.622 249.654 79.958C249.633 79.2113 249.633 78.134 249.654 76.726C249.697 75.2967 249.74 73.686 249.782 71.894C249.825 70.102 249.878 68.2247 249.942 66.262C250.028 64.2993 250.092 62.39 250.134 60.534C250.198 58.678 250.241 56.982 250.262 55.446C250.305 53.91 250.326 52.6727 250.326 51.734C250.326 50.646 250.124 49.9633 249.718 49.686C249.334 49.3873 248.502 49.238 247.222 49.238C245.772 49.238 244.31 49.3553 242.838 49.59C241.388 49.8033 239.969 49.91 238.582 49.91C238.134 49.91 237.729 49.8673 237.366 49.782C237.025 49.6753 236.748 49.5047 236.534 49.27C236.342 49.0353 236.246 48.7367 236.246 48.374C236.246 47.926 236.566 47.5207 237.206 47.158C237.846 46.7953 238.764 46.486 239.958 46.23C241.153 45.9527 242.604 45.7287 244.31 45.558C246.038 45.3873 247.99 45.2593 250.166 45.174C252.342 45.0887 254.71 45.046 257.27 45.046C258.572 45.046 259.841 45.078 261.078 45.142C262.316 45.1847 263.468 45.27 264.534 45.398C265.601 45.526 266.529 45.6967 267.318 45.91C268.129 46.102 268.758 46.3473 269.206 46.646C269.676 46.9447 269.91 47.286 269.91 47.67C269.91 48.0753 269.793 48.3847 269.558 48.598C269.324 48.8113 268.993 48.9713 268.566 49.078C268.14 49.1633 267.628 49.206 267.03 49.206C265.964 49.206 264.961 49.1633 264.022 49.078C263.105 48.9713 262.038 48.918 260.822 48.918C258.945 48.918 257.58 49.0247 256.726 49.238C255.894 49.4513 255.372 49.8993 255.158 50.582C254.966 51.2647 254.86 52.3207 254.838 53.75C254.838 54.7527 254.817 55.8407 254.774 57.014C254.732 58.1873 254.678 59.4353 254.614 60.758C254.572 62.0807 254.508 63.4353 254.422 64.822C254.358 66.2087 254.284 67.5847 254.198 68.95C254.134 70.3153 254.07 71.6487 254.006 72.95C253.964 74.2513 253.91 75.478 253.846 76.63C253.782 77.7607 253.74 78.7953 253.718 79.734C253.633 80.9713 253.516 81.942 253.366 82.646C253.238 83.3287 253.036 83.8087 252.758 84.086C252.502 84.3633 252.14 84.502 251.67 84.502ZM307.54 84.47C307.007 84.47 306.558 84.246 306.196 83.798C305.833 83.3713 305.513 82.774 305.236 82.006C305.044 81.302 304.809 80.4487 304.532 79.446C304.276 78.4433 304.02 77.4193 303.764 76.374C303.508 75.3073 303.262 74.326 303.028 73.43C302.793 72.534 302.59 71.83 302.42 71.318C302.207 70.614 301.897 70.1127 301.492 69.814C301.086 69.494 300.382 69.2807 299.38 69.174C298.889 69.1313 298.089 69.0673 296.98 68.982C295.87 68.8967 294.654 68.822 293.332 68.758C292.03 68.694 290.804 68.662 289.652 68.662C287.945 68.662 286.206 68.7047 284.436 68.79C282.665 68.854 281.161 68.9287 279.924 69.014C278.878 69.078 278.121 69.2593 277.652 69.558C277.204 69.8353 276.841 70.3687 276.564 71.158C276.286 71.9047 275.988 72.822 275.668 73.91C275.369 74.9767 275.06 76.1073 274.74 77.302C274.42 78.4753 274.121 79.6167 273.844 80.726C273.502 81.814 273.14 82.5927 272.756 83.062C272.372 83.5313 271.849 83.766 271.188 83.766C270.804 83.766 270.473 83.6807 270.196 83.51C269.94 83.3607 269.748 83.1047 269.62 82.742C269.492 82.3793 269.428 81.91 269.428 81.334C269.428 80.502 269.566 79.4033 269.844 78.038C270.121 76.6513 270.494 75.1153 270.964 73.43C271.433 71.7233 271.956 69.974 272.532 68.182C273.108 66.39 273.694 64.6513 274.292 62.966C274.91 61.2593 275.486 59.7233 276.02 58.358C276.574 56.9927 277.044 55.9153 277.428 55.126C278.174 53.6113 278.985 52.2033 279.86 50.902C280.756 49.6007 281.726 48.4593 282.772 47.478C283.838 46.4753 284.99 45.6967 286.228 45.142C287.465 44.5873 288.809 44.31 290.26 44.31C292.777 44.31 294.964 45.1953 296.82 46.966C298.697 48.7367 300.329 51.0193 301.716 53.814C302.185 54.6673 302.687 55.8407 303.22 57.334C303.775 58.8273 304.34 60.502 304.916 62.358C305.492 64.1927 306.036 66.0913 306.548 68.054C307.081 70.0167 307.55 71.9367 307.956 73.814C308.382 75.67 308.713 77.3553 308.948 78.87C309.204 80.3847 309.332 81.6113 309.332 82.55C309.332 83.2327 309.172 83.7233 308.852 84.022C308.553 84.3207 308.116 84.47 307.54 84.47ZM299.636 65.814C300.127 65.7927 300.457 65.654 300.628 65.398C300.798 65.142 300.884 64.726 300.884 64.15C300.884 63.382 300.745 62.4113 300.468 61.238C300.191 60.0433 299.807 58.774 299.316 57.43C298.825 56.086 298.26 54.8167 297.62 53.622C296.724 51.8727 295.668 50.4113 294.452 49.238C293.236 48.0647 291.913 47.478 290.484 47.478C289.033 47.478 287.636 48.0327 286.292 49.142C284.969 50.2513 283.774 51.7233 282.708 53.558C282.238 54.3047 281.758 55.1687 281.268 56.15C280.777 57.11 280.318 58.102 279.892 59.126C279.486 60.1287 279.145 61.078 278.868 61.974C278.612 62.8487 278.484 63.5847 278.484 64.182C278.484 64.758 278.697 65.1527 279.124 65.366C279.572 65.5793 280.436 65.686 281.716 65.686C284.894 65.686 287.625 65.6967 289.908 65.718C292.212 65.7393 294.153 65.7713 295.732 65.814C297.332 65.8353 298.633 65.8353 299.636 65.814ZM316.238 84.534C315.619 84.534 315.118 84.214 314.734 83.574C314.371 82.934 314.115 81.9313 313.966 80.566C313.902 79.9687 313.838 79.1687 313.774 78.166C313.71 77.1633 313.635 76.054 313.55 74.838C313.486 73.6007 313.432 72.342 313.39 71.062C313.347 69.7607 313.315 68.5127 313.294 67.318C313.272 66.102 313.262 65.046 313.262 64.15C313.262 61.3553 313.358 58.838 313.55 56.598C313.742 54.358 314.083 52.3953 314.574 50.71C315.086 49.0247 315.8 47.6273 316.718 46.518C317.656 45.3873 318.872 44.5447 320.366 43.99C321.859 43.414 323.694 43.126 325.87 43.126C328.067 43.126 330.115 43.35 332.014 43.798C333.934 44.2247 335.608 44.886 337.038 45.782C338.488 46.678 339.608 47.8087 340.398 49.174C341.208 50.518 341.614 52.0967 341.614 53.91C341.614 55.8087 341.134 57.4087 340.174 58.71C339.214 59.99 337.966 61.0353 336.43 61.846C334.894 62.6567 333.262 63.286 331.534 63.734C329.827 64.1607 328.216 64.4593 326.702 64.63C325.87 64.7153 325.326 64.8113 325.07 64.918C324.814 65.0033 324.686 65.142 324.686 65.334C324.686 65.4833 324.75 65.654 324.878 65.846C325.006 66.038 325.219 66.2833 325.518 66.582C325.816 66.8807 326.211 67.2647 326.702 67.734C327.192 68.182 327.79 68.7367 328.494 69.398C329.283 70.166 330.211 71.0833 331.278 72.15C332.366 73.1953 333.464 74.2833 334.574 75.414C335.704 76.5233 336.75 77.59 337.71 78.614C338.67 79.6167 339.448 80.47 340.046 81.174C340.664 81.878 340.974 82.3047 340.974 82.454C340.974 82.7527 340.899 82.998 340.75 83.19C340.6 83.4033 340.408 83.5527 340.174 83.638C339.939 83.7447 339.662 83.798 339.342 83.798C338.872 83.798 338.264 83.574 337.518 83.126C336.771 82.6567 335.928 82.0167 334.99 81.206C334.072 80.3953 333.091 79.478 332.046 78.454C331 77.43 329.923 76.342 328.814 75.19C327.064 73.3767 325.496 71.8193 324.11 70.518C322.744 69.2167 321.614 68.2033 320.718 67.478C319.843 66.7527 319.235 66.39 318.894 66.39C318.638 66.39 318.435 66.5073 318.286 66.742C318.158 66.9553 318.062 67.35 317.998 67.926C317.934 68.502 317.891 69.302 317.87 70.326C317.87 71.3287 317.87 72.6193 317.87 74.198C317.87 74.582 317.88 75.0833 317.902 75.702C317.923 76.3207 317.934 76.982 317.934 77.686C317.955 78.39 317.976 79.062 317.998 79.702C318.019 80.342 318.03 80.8967 318.03 81.366C318.051 81.814 318.062 82.102 318.062 82.23C317.998 83.0193 317.816 83.5953 317.518 83.958C317.219 84.342 316.792 84.534 316.238 84.534ZM321.87 62.806C322.744 62.806 323.854 62.7313 325.198 62.582C326.542 62.4113 327.95 62.134 329.422 61.75C330.894 61.3447 332.28 60.8007 333.582 60.118C334.904 59.4353 335.971 58.582 336.782 57.558C337.592 56.534 337.998 55.3073 337.998 53.878C337.998 52.406 337.635 51.158 336.91 50.134C336.206 49.11 335.246 48.2993 334.03 47.702C332.835 47.0833 331.512 46.6353 330.062 46.358C328.611 46.0807 327.15 45.942 325.678 45.942C324.206 45.942 322.958 46.1553 321.934 46.582C320.931 46.9873 320.12 47.6273 319.502 48.502C318.904 49.3553 318.467 50.4967 318.19 51.926C318.04 52.694 317.923 53.4513 317.838 54.198C317.774 54.9447 317.72 55.67 317.678 56.374C317.635 57.078 317.614 57.7287 317.614 58.326C317.614 59.4993 317.688 60.4167 317.838 61.078C318.008 61.718 318.392 62.166 318.99 62.422C319.587 62.678 320.547 62.806 321.87 62.806ZM362.17 84.502C361.488 84.502 360.986 84.1607 360.666 83.478C360.368 82.7953 360.197 81.622 360.154 79.958C360.133 79.2113 360.133 78.134 360.154 76.726C360.197 75.2967 360.24 73.686 360.282 71.894C360.325 70.102 360.378 68.2247 360.442 66.262C360.528 64.2993 360.592 62.39 360.634 60.534C360.698 58.678 360.741 56.982 360.762 55.446C360.805 53.91 360.826 52.6727 360.826 51.734C360.826 50.646 360.624 49.9633 360.218 49.686C359.834 49.3873 359.002 49.238 357.722 49.238C356.272 49.238 354.81 49.3553 353.338 49.59C351.888 49.8033 350.469 49.91 349.082 49.91C348.634 49.91 348.229 49.8673 347.866 49.782C347.525 49.6753 347.248 49.5047 347.034 49.27C346.842 49.0353 346.746 48.7367 346.746 48.374C346.746 47.926 347.066 47.5207 347.706 47.158C348.346 46.7953 349.264 46.486 350.458 46.23C351.653 45.9527 353.104 45.7287 354.81 45.558C356.538 45.3873 358.49 45.2593 360.666 45.174C362.842 45.0887 365.21 45.046 367.77 45.046C369.072 45.046 370.341 45.078 371.578 45.142C372.816 45.1847 373.968 45.27 375.034 45.398C376.101 45.526 377.029 45.6967 377.818 45.91C378.629 46.102 379.258 46.3473 379.706 46.646C380.176 46.9447 380.41 47.286 380.41 47.67C380.41 48.0753 380.293 48.3847 380.058 48.598C379.824 48.8113 379.493 48.9713 379.066 49.078C378.64 49.1633 378.128 49.206 377.53 49.206C376.464 49.206 375.461 49.1633 374.522 49.078C373.605 48.9713 372.538 48.918 371.322 48.918C369.445 48.918 368.08 49.0247 367.226 49.238C366.394 49.4513 365.872 49.8993 365.658 50.582C365.466 51.2647 365.36 52.3207 365.338 53.75C365.338 54.7527 365.317 55.8407 365.274 57.014C365.232 58.1873 365.178 59.4353 365.114 60.758C365.072 62.0807 365.008 63.4353 364.922 64.822C364.858 66.2087 364.784 67.5847 364.698 68.95C364.634 70.3153 364.57 71.6487 364.506 72.95C364.464 74.2513 364.41 75.478 364.346 76.63C364.282 77.7607 364.24 78.7953 364.218 79.734C364.133 80.9713 364.016 81.942 363.866 82.646C363.738 83.3287 363.536 83.8087 363.258 84.086C363.002 84.3633 362.64 84.502 362.17 84.502Z" fill="#DFFFD8"/>
<path d="M191.627 26.19L187.627 15.69" stroke="#DFFFD8" stroke-width="3" stroke-linecap="round"/>
<path d="M197.627 27.19L199.627 14.19" stroke="#DFFFD8" stroke-width="3" stroke-linecap="round"/>
<path d="M205.127 25.69L209.627 16.69" stroke="#DFFFD8" stroke-width="3" stroke-linecap="round"/>
<path d="M77.1268 108.69L73.1268 114.19" stroke="#DFFFD8" stroke-width="3" stroke-linecap="round"/>
<path d="M82.6268 110.19L79.1268 117.69" stroke="#DFFFD8" stroke-width="3" stroke-linecap="round"/>
<path d="M513.627 99.69L516.627 101.69" stroke="#DFFFD8" stroke-width="3" stroke-linecap="round"/>
<path d="M515.627 94.69L519.627 96.19" stroke="#DFFFD8" stroke-width="3" stroke-linecap="round"/>
<path d="M518.127 89.69L523.627 90.69" stroke="#DFFFD8" stroke-width="3" stroke-linecap="round"/>
</svg>
