<svg width="128" height="128" viewBox="0 0 128 128" fill="none" xmlns="http://www.w3.org/2000/svg">
<path d="M13.522 12C13.522 12 21.6887 6.80246 26.1886 5.80247C30.6886 4.80248 76.1886 2.30245 104.189 5.80247C108.919 6.39374 110.66 9.59728 114.189 12.8025C118.297 16.5344 121.689 18.8025 123.189 23.8025C124.689 28.8025 125.189 98.3025 123.189 103.302C121.189 108.302 120.338 112.554 116.189 116.802C112.398 120.684 108.189 123.802 104.189 123.802C100.189 123.802 36.6886 123.802 36.6886 123.802C36.6886 123.802 25.6998 124.727 19.6886 121.802C13.7289 118.903 10.0219 118.605 5.52189 109.802C1.0219 101 3.5218 23.605 5.52189 19.3025C7.52197 15 13.522 12 13.522 12Z" fill="#DFFFD8"/>
<path d="M10 37C10 37 11.8486 25.8837 16.5 21C19.1148 18.2546 21.0781 17.1323 24.5 15.5C29.7191 13.0103 39 12.5 39 12.5" stroke="#194916" stroke-width="3" stroke-linecap="round"/>
<path d="M45 11.5H88" stroke="#194916" stroke-width="3" stroke-linecap="round"/>
<path d="M100 15C100 15 107.327 16.9334 110 20.5C112.642 24.0253 112.5 31.5 112.5 31.5" stroke="#194916" stroke-width="3" stroke-linecap="round"/>
<path d="M115 40.5L116.5 94.5" stroke="#194916" stroke-width="3" stroke-linecap="round"/>
<path d="M37.5 117.5H78" stroke="#194916" stroke-width="3" stroke-linecap="round"/>
<path d="M81.5 117.5C81.5 117.5 95.2545 119.886 102.5 116C105.564 114.357 107.232 113.135 109.5 110.5C113.097 106.323 115 97.5 115 97.5" stroke="#194916" stroke-width="3" stroke-linecap="round"/>
<path d="M11 53.5V99.5" stroke="#194916" stroke-width="3" stroke-linecap="round"/>
<path d="M23 114.5C23 114.5 15.6093 110.868 13.5 106.5C12.4496 104.325 12 100.5 12 100.5" stroke="#194916" stroke-width="3" stroke-linecap="round"/>
<path d="M28 116L27 121.5" stroke="#194916" stroke-width="3" stroke-linecap="round"/>
<path d="M32.5 115.5L33.5 122.5" stroke="#194916" stroke-width="3" stroke-linecap="round"/>
<path d="M60.8855 82.864C60.0748 82.864 59.2855 82.4587 58.5175 81.648C57.7708 80.816 57.0562 79.7813 56.3735 78.544C55.6908 77.3067 55.0722 76.0587 54.5175 74.8C54.0695 73.8613 53.5255 72.5707 52.8855 70.928C52.2668 69.2853 51.6055 67.4613 50.9015 65.456C50.1975 63.4507 49.5042 61.4133 48.8215 59.344C48.1388 57.2747 47.5095 55.3227 46.9335 53.488C46.3788 51.6533 45.9308 50.0747 45.5895 48.752C45.2482 47.408 45.0775 46.5013 45.0775 46.032C45.0775 45.328 45.2802 44.8053 45.6855 44.464C46.1122 44.1013 46.6562 43.92 47.3175 43.92C47.9148 43.92 48.4268 44.1013 48.8535 44.464C49.3015 44.8267 49.6428 45.424 49.8775 46.256C50.3895 48.048 50.9655 50.1173 51.6055 52.464C52.2668 54.8107 52.9602 57.2107 53.6855 59.664C54.4322 62.096 55.1575 64.4213 55.8615 66.64C56.5655 68.8373 57.2055 70.6933 57.7815 72.208C58.5068 74.064 59.1362 75.5467 59.6695 76.656C60.2028 77.744 60.6402 78.288 60.9815 78.288C61.3868 78.288 61.9842 77.7653 62.7735 76.72C63.5842 75.6533 64.5015 74.2667 65.5255 72.56C66.4428 71.0453 67.4242 69.2853 68.4695 67.28C69.5148 65.2747 70.5708 63.1413 71.6375 60.88C72.7255 58.6187 73.7708 56.336 74.7735 54.032C75.7762 51.728 76.6935 49.5093 77.5255 47.376C77.7815 46.7147 78.0482 46.2027 78.3255 45.84C78.6028 45.456 78.9122 45.1787 79.2535 45.008C79.5948 44.8373 79.9682 44.752 80.3735 44.752C80.8002 44.752 81.1628 44.848 81.4615 45.04C81.7815 45.232 82.0268 45.488 82.1975 45.808C82.3895 46.128 82.4855 46.4907 82.4855 46.896C82.4855 47.472 82.2402 48.4213 81.7495 49.744C81.2802 51.0667 80.6402 52.624 79.8295 54.416C79.0402 56.1867 78.1442 58.064 77.1415 60.048C76.1388 62.032 75.1148 63.9947 74.0695 65.936C73.0242 67.8773 72.0108 69.6693 71.0295 71.312C70.0695 72.9547 69.2162 74.3093 68.4695 75.376C67.6588 76.528 66.8055 77.68 65.9095 78.832C65.0135 79.984 64.1282 80.944 63.2535 81.712C62.4002 82.48 61.6108 82.864 60.8855 82.864Z" fill="#194916"/>
</svg>
