<svg width="128" height="128" viewBox="0 0 128 128" fill="none" xmlns="http://www.w3.org/2000/svg">
<g clip-path="url(#clip0_8_985)">
<path d="M10.5001 6.99999C16 2.31585 18.5001 0.999977 23.0001 -1.14441e-05C27.5 -1 73 -3.50003 101 -1.14441e-05C105.73 0.591258 107.472 3.7948 111 6.99999C115.109 10.7319 118.5 13 120 18C121.5 23 122 92.5 120 97.5C118 102.5 117.15 106.752 113 111C109.209 114.881 105 118 101 118C97 118 33.5 118 33.5 118C33.5 118 22.5113 118.924 16.5001 116C10.5404 113.101 4.50006 104 4.50006 104C4.50006 104 3.00002 16.5 4.50006 13.5C6.0001 10.5 7.87008 9.23987 10.5001 6.99999Z" fill="#DFFFD8"/>
<path d="M14.5 20.0002C14.5 20.0002 13.0001 9.00034 29 7.00017C45 5 73 7.00017 73 7.00017" stroke="#194916" stroke-width="3" stroke-linecap="round"/>
<path d="M10.5 35.5V75" stroke="#194916" stroke-width="3" stroke-linecap="round"/>
<path d="M10.5 80C10.5 80 9 96.5 12 100.5C15 104.5 16.1334 105.328 19.5 107.5C24.0145 110.412 29.0001 112 32.5 112C36 112 86.5 112 86.5 112" stroke="#194916" stroke-width="3" stroke-linecap="round"/>
<path d="M97.5 109C97.5 109 104.83 109.094 108.5 105.5C111.681 102.385 113.5 96 113.5 96" stroke="#194916" stroke-width="3" stroke-linecap="round"/>
<path d="M116 85.5V42.5" stroke="#194916" stroke-width="3" stroke-linecap="round"/>
<path d="M90.5 7C90.5 7 104.534 8.84537 110 15C115.629 21.3389 115.5 36 115.5 36" stroke="#194916" stroke-width="3" stroke-linecap="round"/>
<path d="M12 24L9.5 23H6.5" stroke="#194916" stroke-width="3" stroke-linecap="round"/>
<path d="M11 29H7" stroke="#194916" stroke-width="3" stroke-linecap="round"/>
<path d="M46.7395 73.512C46.4408 73.512 46.1742 73.448 45.9395 73.32C45.7048 73.2133 45.5128 73.0533 45.3635 72.84C45.2355 72.6267 45.1715 72.3813 45.1715 72.104C45.1715 71.784 45.2675 71.4427 45.4595 71.08C45.6515 70.696 45.9608 70.28 46.3875 69.832C46.7075 69.4907 47.2515 68.9573 48.0195 68.232C48.7875 67.5067 49.6728 66.7067 50.6755 65.832C51.6782 64.936 52.6808 64.0613 53.6835 63.208C54.6008 62.3973 55.4435 61.6507 56.2115 60.968C56.9795 60.264 57.5982 59.6453 58.0675 59.112C58.5582 58.5573 58.8035 58.1413 58.8035 57.864C58.8035 57.6293 58.5475 57.256 58.0355 56.744C57.5235 56.2107 56.8515 55.6027 56.0195 54.92C55.2088 54.216 54.3448 53.4907 53.4275 52.744C52.4035 51.9547 51.4115 51.1333 50.4515 50.28C49.4915 49.4053 48.6702 48.6373 47.9875 47.976C47.6248 47.6347 47.3262 47.2827 47.0915 46.92C46.8568 46.5573 46.7395 46.1733 46.7395 45.768C46.7395 45.4267 46.8355 45.1387 47.0275 44.904C47.2195 44.6693 47.4648 44.488 47.7635 44.36C48.0622 44.2107 48.3715 44.136 48.6915 44.136C49.0542 44.136 49.4168 44.2427 49.7795 44.456C50.1422 44.6693 50.5262 44.9467 50.9315 45.288C51.6782 45.8853 52.5315 46.6427 53.4915 47.56C54.4515 48.456 55.3688 49.4053 56.2435 50.408C57.6942 51.944 58.8888 53.1813 59.8275 54.12C60.7875 55.0373 61.4595 55.496 61.8435 55.496C62.1208 55.496 62.5368 55.2507 63.0915 54.76C63.6675 54.2693 64.3075 53.6507 65.0115 52.904C65.7155 52.1573 66.4302 51.3893 67.1555 50.6C68.2648 49.384 69.1395 48.4453 69.7795 47.784C70.4408 47.1013 71.0808 46.4293 71.6995 45.768C72.1688 45.2773 72.6915 44.8187 73.2675 44.392C73.8648 43.9653 74.3875 43.752 74.8355 43.752C75.3262 43.752 75.7208 43.8907 76.0195 44.168C76.3182 44.424 76.4675 44.776 76.4675 45.224C76.4675 45.672 76.3288 46.152 76.0515 46.664C75.7742 47.176 75.3582 47.7307 74.8035 48.328C74.2915 48.904 73.6195 49.576 72.7875 50.344C71.9768 51.0907 71.0382 51.9013 69.9715 52.776C68.4355 54.0773 67.3155 55.048 66.6115 55.688C65.9075 56.328 65.4595 56.7973 65.2675 57.096C65.0755 57.3947 64.9795 57.704 64.9795 58.024C64.9795 58.3227 65.3955 58.824 66.2275 59.528C67.0808 60.232 68.5528 61.4373 70.6435 63.144C71.5182 63.848 72.3715 64.5947 73.2035 65.384C74.0568 66.152 74.8248 66.8667 75.5075 67.528C76.2115 68.168 76.7342 68.6693 77.0755 69.032C77.6515 69.608 78.0675 70.1307 78.3235 70.6C78.6008 71.048 78.7395 71.464 78.7395 71.848C78.7395 72.0827 78.6968 72.2853 78.6115 72.456C78.5262 72.6267 78.3982 72.7653 78.2275 72.872C78.0568 72.9787 77.8755 73.0533 77.6835 73.096C77.4915 73.16 77.2888 73.192 77.0755 73.192C76.6702 73.192 76.2648 73.096 75.8595 72.904C75.4542 72.6907 74.9742 72.3387 74.4195 71.848C73.7582 71.2933 72.8942 70.5253 71.8275 69.544C70.7822 68.5413 69.4275 67.1867 67.7635 65.48C65.9288 63.6453 64.5635 62.3013 63.6675 61.448C62.7928 60.5733 62.1848 60.136 61.8435 60.136C61.6515 60.136 61.4062 60.2533 61.1075 60.488C60.8088 60.7013 60.2968 61.192 59.5715 61.96C58.8462 62.7067 57.7262 63.8907 56.2115 65.512C55.3795 66.408 54.5048 67.336 53.5875 68.296C52.6702 69.2347 51.8382 70.0667 51.0915 70.792C50.3448 71.5173 49.7795 72.0293 49.3955 72.328C48.9902 72.648 48.5635 72.9253 48.1155 73.16C47.6675 73.3947 47.2088 73.512 46.7395 73.512Z" fill="#194916"/>
</g>
<defs>
<clipPath id="clip0_8_985">
<rect width="128" height="128" fill="white"/>
</clipPath>
</defs>
</svg>
