<svg width="128" height="128" viewBox="0 0 128 128" fill="none" xmlns="http://www.w3.org/2000/svg">
<g clip-path="url(#clip0_1_162)">
<path d="M1.99987 0H125.992V1V2H128V8H0V2H1.99987V0Z" fill="#2F3C7E"/>
<path d="M126 128L2.00822 128V126.933V125.867H0V120L128 120V125.867H126V128Z" fill="#2F3C7E"/>
<path d="M0 6H8V122H0V6Z" fill="#2F3C7E"/>
<rect x="120" y="6" width="8" height="116" fill="#2F3C7E"/>
<rect x="8" y="8" width="112" height="112" fill="#FBEAEB"/>
<rect x="20" y="16" width="88" height="8" fill="#2F3C7E"/>
<rect x="20" y="104" width="88" height="8" fill="#2F3C7E"/>
<rect x="104" y="24" width="4" height="4" fill="#2F3C7E"/>
<rect x="100" y="28" width="4" height="4" fill="#2F3C7E"/>
<rect x="100" y="24" width="4" height="4" fill="#2F3C7E"/>
<rect x="96" y="32" width="4" height="4" fill="#2F3C7E"/>
<rect x="92" y="36" width="4" height="4" fill="#2F3C7E"/>
<rect x="92" y="32" width="4" height="4" fill="#2F3C7E"/>
<rect x="88" y="40" width="4" height="4" fill="#2F3C7E"/>
<rect x="84" y="44" width="4" height="4" fill="#2F3C7E"/>
<rect x="84" y="40" width="4" height="4" fill="#2F3C7E"/>
<rect x="80" y="48" width="4" height="4" fill="#2F3C7E"/>
<rect x="76" y="52" width="4" height="4" fill="#2F3C7E"/>
<rect x="76" y="48" width="4" height="4" fill="#2F3C7E"/>
<rect x="76" y="52" width="4" height="4" fill="#2F3C7E"/>
<rect x="72" y="56" width="4" height="4" fill="#2F3C7E"/>
<rect x="72" y="52" width="4" height="4" fill="#2F3C7E"/>
<rect x="68" y="60" width="4" height="4" fill="#2F3C7E"/>
<rect x="64" y="64" width="4" height="4" fill="#2F3C7E"/>
<rect x="64" y="60" width="4" height="4" fill="#2F3C7E"/>
<rect x="60" y="68" width="4" height="4" fill="#2F3C7E"/>
<rect x="56" y="72" width="4" height="4" fill="#2F3C7E"/>
<rect x="56" y="68" width="4" height="4" fill="#2F3C7E"/>
<rect x="52" y="76" width="4" height="4" fill="#2F3C7E"/>
<rect x="48" y="80" width="4" height="4" fill="#2F3C7E"/>
<rect x="48" y="76" width="4" height="4" fill="#2F3C7E"/>
<rect x="56" y="72" width="4" height="4" fill="#2F3C7E"/>
<rect x="52" y="76" width="4" height="4" fill="#2F3C7E"/>
<rect x="52" y="72" width="4" height="4" fill="#2F3C7E"/>
<rect x="48" y="80" width="4" height="4" fill="#2F3C7E"/>
<rect x="44" y="84" width="4" height="4" fill="#2F3C7E"/>
<rect x="44" y="80" width="4" height="4" fill="#2F3C7E"/>
<rect x="40" y="88" width="4" height="4" fill="#2F3C7E"/>
<rect x="36" y="92" width="4" height="4" fill="#2F3C7E"/>
<rect x="36" y="88" width="4" height="4" fill="#2F3C7E"/>
<rect x="32" y="96" width="4" height="4" fill="#2F3C7E"/>
<rect x="28" y="100" width="4" height="4" fill="#2F3C7E"/>
<rect x="28" y="96" width="4" height="4" fill="#2F3C7E"/>
<rect x="92" y="24" width="4" height="4" fill="#2F3C7E"/>
<rect x="88" y="28" width="4" height="4" fill="#2F3C7E"/>
<rect x="84" y="32" width="4" height="4" fill="#2F3C7E"/>
<rect x="80" y="36" width="4" height="4" fill="#2F3C7E"/>
<rect x="76" y="40" width="4" height="4" fill="#2F3C7E"/>
<rect x="72" y="44" width="4" height="4" fill="#2F3C7E"/>
<rect x="68" y="48" width="4" height="4" fill="#2F3C7E"/>
<rect x="64" y="52" width="4" height="4" fill="#2F3C7E"/>
<rect x="68" y="52" width="4" height="4" fill="#2F3C7E"/>
<rect x="72" y="48" width="4" height="4" fill="#2F3C7E"/>
<rect x="80" y="40" width="4" height="4" fill="#2F3C7E"/>
<rect x="88" y="32" width="4" height="4" fill="#2F3C7E"/>
<rect x="92" y="28" width="4" height="4" fill="#2F3C7E"/>
<rect x="96" y="28" width="4" height="4" fill="#2F3C7E"/>
<rect x="96" y="24" width="4" height="4" fill="#2F3C7E"/>
<rect x="60" y="56" width="4" height="4" fill="#2F3C7E"/>
<rect x="56" y="60" width="4" height="4" fill="#2F3C7E"/>
<rect x="60" y="60" width="4" height="4" fill="#2F3C7E"/>
<rect x="52" y="64" width="4" height="4" fill="#2F3C7E"/>
<rect x="48" y="68" width="4" height="4" fill="#2F3C7E"/>
<rect x="20" y="28" width="4" height="4" fill="#2F3C7E"/>
<rect x="44" y="72" width="4" height="4" fill="#2F3C7E"/>
<rect x="40" y="76" width="4" height="4" fill="#2F3C7E"/>
<rect x="104" y="96" width="4" height="4" fill="#2F3C7E"/>
<rect x="36" y="80" width="4" height="4" fill="#2F3C7E"/>
<rect x="40" y="80" width="4" height="4" fill="#2F3C7E"/>
<rect x="44" y="76" width="4" height="4" fill="#2F3C7E"/>
<rect x="48" y="72" width="4" height="4" fill="#2F3C7E"/>
<rect x="52" y="68" width="4" height="4" fill="#2F3C7E"/>
<rect x="56" y="64" width="4" height="4" fill="#2F3C7E"/>
<rect x="56" y="64" width="8" height="4" fill="#2F3C7E"/>
<rect x="100" y="100" width="8" height="4" fill="#2F3C7E"/>
<rect x="20" y="24" width="8" height="4" fill="#2F3C7E"/>
<rect x="64" y="56" width="8" height="4" fill="#2F3C7E"/>
<rect x="76" y="44" width="8" height="4" fill="#2F3C7E"/>
<rect x="84" y="36" width="8" height="4" fill="#2F3C7E"/>
<rect x="32" y="84" width="4" height="4" fill="#2F3C7E"/>
<rect x="28" y="88" width="4" height="4" fill="#2F3C7E"/>
<rect x="24" y="92" width="4" height="4" fill="#2F3C7E"/>
<rect x="20" y="96" width="4" height="4" fill="#2F3C7E"/>
<rect x="20" y="100" width="4" height="4" fill="#2F3C7E"/>
<rect x="24" y="100" width="4" height="4" fill="#2F3C7E"/>
<rect x="24" y="96" width="4" height="4" fill="#2F3C7E"/>
<rect x="28" y="92" width="4" height="4" fill="#2F3C7E"/>
<rect x="32" y="92" width="4" height="4" fill="#2F3C7E"/>
<rect x="36" y="84" width="4" height="4" fill="#2F3C7E"/>
<rect x="32" y="88" width="4" height="4" fill="#2F3C7E"/>
<rect x="40" y="84" width="4" height="4" fill="#2F3C7E"/>
</g>
<defs>
<clipPath id="clip0_1_162">
<rect width="128" height="128" fill="white"/>
</clipPath>
</defs>
</svg>
